<?xml version="1.0" standalone="no"?>
<!DOCTYPE svg PUBLIC "-//W3C//DTD SVG 20010904//EN"
 "http://www.w3.org/TR/2001/REC-SVG-20010904/DTD/svg10.dtd">
<svg version="1.0" xmlns="http://www.w3.org/2000/svg"
 width="618.000000pt" height="618.000000pt" viewBox="0 0 618.000000 618.000000"
 preserveAspectRatio="xMidYMid meet">
<metadata>
Created by potrace 1.14, written by Peter Selinger 2001-2017
</metadata>
<g transform="translate(0.000000,618.000000) scale(0.100000,-0.100000)"
fill="#000000" stroke="none">
<path d="M180 6123 c0 -32 -2 -149 -3 -261 -1 -111 2 -202 6 -202 5 0 5 -5 2
-10 -9 -14 -9 -225 -1 -239 4 -6 4 -11 -1 -11 -4 0 -8 -158 -8 -350 0 -193 4
-350 8 -350 5 0 5 -5 2 -10 -9 -14 -9 -225 -1 -239 4 -6 4 -11 -1 -11 -4 0 -8
-158 -8 -350 0 -193 4 -350 8 -350 5 0 5 -5 2 -10 -9 -14 -9 -225 -1 -239 4
-6 4 -11 -1 -11 -4 0 -8 -158 -8 -350 0 -193 4 -350 8 -350 5 0 5 -5 2 -10 -9
-14 -9 -225 -1 -239 4 -6 4 -11 -1 -11 -4 0 -8 -158 -8 -350 0 -193 4 -350 8
-350 5 0 5 -5 2 -10 -9 -14 -9 -225 -1 -239 4 -6 4 -11 -1 -11 -4 0 -8 -158
-8 -350 0 -193 4 -350 8 -350 5 0 5 -5 2 -10 -9 -14 -9 -225 -1 -239 4 -6 4
-11 -1 -11 -7 0 -8 -45 -3 -220 1 -36 1 -69 0 -75 -1 -5 -1 -14 0 -20 1 -5 1
-37 0 -70 l-1 -60 178 1 c98 0 185 4 192 9 11 6 13 4 8 -9 -5 -12 -3 -15 6 -9
6 4 39 9 72 10 33 1 67 3 75 3 8 0 62 0 120 0 58 0 112 0 120 0 8 0 60 -1 115
-3 55 -2 109 1 119 6 16 8 18 6 13 -7 -5 -12 -3 -15 6 -9 6 4 38 9 69 9 67 2
92 9 82 25 -3 6 0 15 7 20 9 6 10 9 2 9 -17 0 -17 470 0 470 9 0 9 2 0 8 -16
10 -16 391 1 411 8 11 8 13 0 8 -16 -9 -16 292 0 312 8 11 8 13 0 8 -16 -9
-16 292 0 312 8 11 8 13 0 8 -16 -9 -16 292 0 312 8 11 8 13 0 8 -8 -4 -11 48
-12 183 0 105 4 192 9 196 5 3 9 11 9 17 0 7 -4 6 -10 -3 -6 -10 -9 57 -9 192
1 154 4 206 12 201 9 -5 9 -3 1 8 -13 16 -15 51 -2 43 4 -3 8 -10 8 -15 0 -6
13 -24 30 -42 16 -18 30 -37 30 -43 0 -7 7 -14 15 -18 8 -3 15 -10 15 -16 0
-6 7 -18 15 -27 8 -8 12 -19 9 -25 -4 -7 -2 -8 4 -4 13 8 35 -28 24 -39 -4 -5
-2 -6 3 -3 6 3 25 -14 44 -38 26 -35 31 -47 22 -58 -9 -11 -9 -16 0 -22 7 -4
9 -3 5 4 -3 6 -2 13 3 16 13 8 34 -21 25 -36 -4 -7 -4 -10 0 -6 10 8 56 -36
56 -54 0 -9 -3 -9 -10 2 -5 8 -10 11 -10 5 0 -5 5 -17 10 -25 6 -10 10 -11 10
-2 0 6 5 12 10 12 6 0 10 -7 10 -15 0 -8 5 -15 11 -15 6 0 9 -7 5 -15 -3 -8 0
-14 6 -12 6 1 13 -4 15 -10 3 -7 0 -13 -7 -13 -6 0 -8 -5 -4 -11 5 -8 9 -8 14
1 4 7 13 2 25 -17 10 -15 27 -37 38 -48 11 -11 25 -33 33 -50 7 -16 13 -25 14
-20 0 9 13 -8 52 -70 7 -11 19 -25 27 -31 8 -6 11 -16 6 -24 -5 -8 -4 -11 2
-7 6 4 37 -31 69 -76 32 -45 67 -91 76 -101 10 -11 18 -25 18 -31 0 -6 9 -17
20 -25 14 -10 17 -17 8 -27 -8 -11 -7 -12 5 -7 19 7 42 -39 30 -59 -4 -7 1 -6
10 2 15 12 21 9 18 -11 0 -5 4 -8 11 -8 6 0 9 -3 5 -6 -3 -4 4 -15 16 -26 12
-11 15 -16 7 -13 -8 4 0 -5 18 -20 17 -14 32 -32 32 -38 0 -7 11 -25 26 -40
14 -15 22 -32 18 -39 -4 -6 -3 -8 3 -5 5 3 20 -11 34 -32 13 -22 27 -37 32
-34 4 2 7 -3 7 -11 0 -9 5 -16 11 -16 5 0 7 -4 4 -10 -3 -5 -3 -10 2 -10 4 0
19 -17 33 -38 14 -20 28 -39 31 -42 3 -3 30 -39 59 -80 29 -41 58 -78 64 -82
6 -4 7 -8 3 -8 -5 0 -2 -6 5 -13 22 -23 63 -79 60 -84 -1 -2 9 -14 23 -27 14
-13 25 -28 25 -35 0 -6 5 -11 10 -11 6 0 10 -10 10 -22 0 -19 2 -20 10 -8 7
11 10 11 10 2 0 -10 69 -111 90 -132 17 -17 53 -76 53 -86 0 -7 5 -12 10 -11
5 1 14 -7 20 -18 7 -10 18 -26 25 -33 7 -8 20 -25 29 -38 14 -22 36 -34 30
-16 -2 7 9 23 45 63 10 10 15 19 10 19 -4 1 4 10 17 20 13 11 20 20 17 20 -4
0 7 15 23 32 17 18 31 38 31 45 0 6 4 13 8 15 4 2 36 40 71 85 35 46 67 83 72
83 5 0 8 6 6 13 -1 6 4 11 11 9 8 -1 11 2 7 8 -3 5 5 21 19 33 14 13 23 27 19
30 -3 4 -1 7 6 7 7 0 9 5 6 10 -3 6 -2 10 4 10 5 0 28 28 50 61 23 34 41 57
41 53 0 -5 9 6 20 24 11 18 24 30 29 27 5 -3 13 0 17 6 4 8 3 9 -4 5 -21 -13
-13 4 29 59 28 38 45 52 57 48 14 -4 14 -3 3 5 -12 9 -12 13 -2 26 7 9 18 13
24 9 6 -3 7 -1 3 5 -9 15 34 73 47 65 6 -3 7 -2 4 4 -3 5 7 24 23 42 16 17 29
34 29 37 0 3 9 17 20 32 12 15 30 39 42 55 11 15 25 24 31 21 7 -5 8 -2 3 6
-5 8 -1 18 10 27 11 7 15 13 11 13 -4 0 -1 6 6 13 7 8 51 66 98 130 47 64 90
114 97 112 7 -2 15 1 19 7 4 7 3 8 -4 4 -19 -12 -14 8 8 32 11 12 20 25 20 29
0 5 8 16 18 25 36 35 52 55 52 64 1 21 39 54 57 48 15 -5 16 -4 3 5 -13 10
-13 12 0 21 8 5 11 10 5 10 -5 0 -2 5 8 11 9 6 15 14 12 20 -4 5 1 9 10 9 9 0
14 4 10 9 -3 6 3 14 12 20 10 6 15 11 11 11 -8 0 -3 6 50 65 12 14 20 25 16
25 -3 0 -1 7 6 15 7 8 17 12 23 8 6 -3 7 -1 3 6 -4 6 0 18 8 27 9 8 30 35 47
60 16 24 35 44 40 44 6 0 8 4 5 9 -3 5 1 12 10 15 9 3 12 11 8 18 -5 7 -2 9 7
6 10 -4 15 1 16 12 2 23 43 71 54 64 5 -3 7 1 4 8 -3 7 6 25 20 40 14 15 25
32 25 39 0 6 7 9 15 6 8 -4 17 -1 21 5 4 7 3 8 -4 4 -21 -13 -13 10 13 38 14
15 25 30 25 35 0 4 16 24 35 45 19 21 37 47 41 59 6 19 8 20 13 5 3 -10 6
-665 6 -1457 l0 -1439 97 1 c55 1 94 -2 91 -7 -4 -5 0 -6 7 -1 15 9 178 10
187 1 4 -3 12 -1 20 5 8 7 13 8 13 1 0 -6 13 -7 35 -2 21 5 35 4 35 -2 0 -5 5
-6 11 -2 14 8 144 8 158 0 5 -4 13 -1 16 4 5 8 14 5 28 -7 11 -10 17 -13 14
-6 -14 22 12 23 29 1 10 -15 14 -17 11 -6 -6 18 5 32 17 21 10 -11 76 -10 76
1 0 5 7 1 16 -10 8 -10 12 -13 8 -5 -5 11 -2 13 14 9 12 -4 22 -3 22 2 0 10
56 -2 90 -19 22 -11 23 -10 8 2 -10 8 -15 17 -12 20 9 8 35 -3 64 -27 l25 -21
-18 21 c-17 21 -17 22 3 27 11 3 22 2 25 -2 2 -4 14 -7 27 -5 13 1 32 3 43 3
20 1 20 7 18 663 -1 492 2 667 10 677 9 12 9 13 0 7 -10 -5 -13 8 -13 54 0 46
3 59 13 54 9 -6 9 -5 0 7 -17 21 -16 338 0 358 9 11 9 13 0 8 -16 -10 -16 771
1 792 8 12 8 13 -1 7 -10 -5 -13 8 -13 54 0 46 3 59 13 54 9 -6 9 -5 0 7 -17
21 -16 338 0 358 9 11 9 13 0 8 -16 -10 -16 771 1 792 8 12 8 13 -1 7 -10 -5
-13 8 -13 54 0 46 3 59 13 54 9 -6 9 -5 0 7 -17 21 -16 338 0 358 9 11 9 13 0
8 -16 -10 -16 771 1 792 8 12 8 13 -1 7 -10 -5 -13 8 -13 54 0 46 3 59 13 54
9 -6 9 -5 0 7 -10 13 -16 137 -14 292 0 15 -11 17 -90 16 -50 0 -93 2 -97 5
-7 8 -5 123 3 136 3 6 2 10 -4 10 -6 0 -8 9 -3 23 4 12 6 38 4 57 -1 19 -3 67
-5 105 l-2 70 -40 3 c-63 5 -121 -7 -148 -31 -26 -24 -138 -166 -392 -502 -88
-115 -165 -216 -172 -223 -7 -7 -13 -17 -13 -21 0 -4 -8 -16 -18 -27 -10 -10
-89 -113 -176 -229 -88 -115 -163 -211 -167 -213 -5 -2 -9 -8 -9 -14 0 -6 -13
-27 -30 -47 -16 -20 -39 -47 -50 -61 -11 -14 -43 -56 -71 -95 -28 -38 -54 -72
-58 -75 -4 -3 -18 -21 -31 -40 -14 -19 -28 -39 -33 -45 -4 -5 -44 -57 -88
-115 -44 -58 -90 -118 -103 -135 -130 -166 -176 -227 -176 -232 0 -3 -8 -13
-18 -22 -10 -9 -27 -29 -38 -46 -10 -16 -24 -37 -31 -45 -33 -41 -137 -176
-161 -208 -15 -21 -106 -140 -153 -202 -52 -68 -106 -139 -124 -164 -11 -15
-56 -75 -100 -132 -44 -58 -84 -113 -90 -122 -5 -9 -16 -22 -23 -30 -7 -8 -24
-30 -39 -50 -90 -122 -227 -291 -239 -296 -9 -3 -37 24 -79 77 -37 45 -72 89
-78 97 -7 8 -41 53 -77 100 -36 47 -68 87 -71 90 -3 3 -55 69 -115 148 -115
151 -175 230 -289 378 -39 50 -80 104 -92 120 -12 16 -71 92 -130 170 -59 77
-119 155 -133 174 -14 18 -32 41 -40 50 -8 10 -22 28 -30 40 -8 12 -22 30 -31
40 -8 10 -24 31 -35 45 -10 15 -47 63 -81 108 -35 45 -135 177 -222 292 -88
116 -166 217 -173 225 -8 8 -47 60 -88 115 -41 55 -79 106 -85 112 -18 22 -43
55 -153 199 -59 78 -117 155 -129 170 -12 16 -60 80 -107 142 -47 62 -90 118
-96 125 -6 7 -31 39 -56 72 -25 33 -50 67 -57 75 -7 8 -23 31 -37 50 -13 19
-27 37 -30 40 -3 3 -19 23 -35 45 -16 22 -48 58 -71 81 -42 41 -43 41 -123 43
l-81 2 0 -58z"/>
<path d="M4709 2863 c-13 -16 -12 -17 4 -4 16 13 21 21 13 21 -2 0 -10 -8 -17
-17z"/>
<path d="M1445 2720 c-3 -6 1 -7 9 -4 18 7 21 14 7 14 -6 0 -13 -4 -16 -10z"/>
<path d="M4566 2722 c-3 -5 1 -9 9 -9 8 0 12 4 9 9 -3 4 -7 8 -9 8 -2 0 -6 -4
-9 -8z"/>
<path d="M4456 2562 c-3 -5 1 -9 9 -9 8 0 12 4 9 9 -3 4 -7 8 -9 8 -2 0 -6 -4
-9 -8z"/>
<path d="M4376 2442 c-3 -5 1 -9 9 -9 8 0 12 4 9 9 -3 4 -7 8 -9 8 -2 0 -6 -4
-9 -8z"/>
<path d="M1749 2303 c-13 -16 -12 -17 4 -4 9 7 17 15 17 17 0 8 -8 3 -21 -13z"/>
<path d="M1790 2280 c0 -5 5 -10 11 -10 5 0 7 5 4 10 -3 6 -8 10 -11 10 -2 0
-4 -4 -4 -10z"/>
<path d="M1897 2115 c-4 -8 -3 -16 1 -19 4 -3 9 4 9 15 2 23 -3 25 -10 4z"/>
<path d="M4014 2002 c4 -3 14 -7 22 -8 9 -1 13 0 10 4 -4 3 -14 7 -22 8 -9 1
-13 0 -10 -4z"/>
<path d="M1990 1986 c0 -2 7 -7 16 -10 8 -3 12 -2 9 4 -6 10 -25 14 -25 6z"/>
<path d="M3955 1921 c-3 -5 -2 -12 3 -15 5 -3 9 1 9 9 0 17 -3 19 -12 6z"/>
<path d="M3930 1880 c0 -5 5 -10 11 -10 5 0 7 5 4 10 -3 6 -8 10 -11 10 -2 0
-4 -4 -4 -10z"/>
<path d="M2055 1860 c-3 -5 -1 -10 4 -10 6 0 11 5 11 10 0 6 -2 10 -4 10 -3 0
-8 -4 -11 -10z"/>
<path d="M2219 1688 c-5 -18 -6 -38 -1 -34 7 8 12 36 6 36 -2 0 -4 -1 -5 -2z"/>
<path d="M3670 1500 c0 -5 5 -10 11 -10 5 0 7 5 4 10 -3 6 -8 10 -11 10 -2 0
-4 -4 -4 -10z"/>
<path d="M3575 1421 c-3 -5 -2 -12 3 -15 5 -3 9 1 9 9 0 17 -3 19 -12 6z"/>
<path d="M2470 1346 c0 -2 7 -7 16 -10 8 -3 12 -2 9 4 -6 10 -25 14 -25 6z"/>
<path d="M3295 1051 c-3 -5 -2 -12 3 -15 5 -3 9 1 9 9 0 17 -3 19 -12 6z"/>
<path d="M2771 933 c7 -12 15 -20 18 -17 3 2 -3 12 -13 22 -17 16 -18 16 -5
-5z"/>
<path d="M3176 895 c-9 -26 -7 -32 5 -12 6 10 9 21 6 23 -2 3 -7 -2 -11 -11z"/>
<path d="M3155 849 c-4 -6 -5 -12 -2 -15 2 -3 7 2 10 11 7 17 1 20 -8 4z"/>
<path d="M2856 822 c-3 -5 1 -9 9 -9 8 0 12 4 9 9 -3 4 -7 8 -9 8 -2 0 -6 -4
-9 -8z"/>
<path d="M3090 780 c0 -5 5 -10 11 -10 5 0 7 5 4 10 -3 6 -8 10 -11 10 -2 0
-4 -4 -4 -10z"/>
<path d="M5334 135 c3 -23 12 -26 13 -5 1 11 -2 20 -7 20 -4 0 -7 -7 -6 -15z"/>
<path d="M473 125 c0 -8 4 -12 9 -9 5 3 6 10 3 15 -9 13 -12 11 -12 -6z"/>
<path d="M873 125 c0 -8 4 -12 9 -9 5 3 6 10 3 15 -9 13 -12 11 -12 -6z"/>
<path d="M1113 125 c0 -8 4 -12 9 -9 5 3 6 10 3 15 -9 13 -12 11 -12 -6z"/>
<path d="M596 93 c-6 -14 -5 -15 5 -6 7 7 10 15 7 18 -3 3 -9 -2 -12 -12z"/>
<path d="M919 93 c-13 -16 -12 -17 4 -4 9 7 17 15 17 17 0 8 -8 3 -21 -13z"/>
<path d="M5073 65 c0 -8 4 -12 9 -9 5 3 6 10 3 15 -9 13 -12 11 -12 -6z"/>
</g>
</svg>
