<svg width="551" height="707" viewBox="0 0 551 707" fill="none" xmlns="http://www.w3.org/2000/svg">
<g clip-path="url(#clip0_11_526)">
<g opacity="0.1">
<path fill-rule="evenodd" clip-rule="evenodd" d="M92.5033 703.335C92.1831 703.104 92.0586 702.641 92.0586 701.93C92.0586 698.14 96.4347 688.106 96.4347 688.106H96.7193C112.093 686.047 127.623 685.409 143.113 686.202C144.313 688.776 145.838 691.185 147.65 693.372C148.239 694.092 148.988 694.664 149.838 695.044C153.022 696.343 151.314 694.653 151.314 694.653C151.599 696.61 151.759 697.589 152.061 699.546C152.061 699.546 153.965 699.795 154.267 700.257" fill="url(#paint0_linear_11_526)"/>
<g style="mix-blend-mode:multiply" opacity="0.4">
<path fill-rule="evenodd" clip-rule="evenodd" d="M146.6 705.043C141.068 704.011 147.472 698.994 138.613 697.357C125.573 694.955 105.881 695.703 92.0052 701.947C92.0052 698.087 96.3992 688.106 96.3992 688.106C111.88 686.262 127.48 685.614 143.06 686.167C143.06 686.167 146.725 693.763 149.909 695.062C153.093 696.361 151.385 694.689 151.385 694.689C151.688 696.628 151.848 697.606 152.168 699.563C152.168 699.563 154.071 699.848 154.374 700.293" fill="#2C1852"/>
</g>
<path fill-rule="evenodd" clip-rule="evenodd" d="M152.168 699.546C150.103 697.954 148.536 695.806 147.65 693.354C152.737 694.617 145.871 693.621 151.332 694.671C151.688 696.61 151.848 697.589 152.168 699.546Z" fill="#7A496C"/>
<path opacity="0.5" fill-rule="evenodd" clip-rule="evenodd" d="M140.961 705.755C140.961 705.755 143.291 701.752 140.961 699.546C138.63 697.339 129.256 698.407 129.256 698.407C129.256 698.407 138.506 700.204 140.961 705.755Z" fill="white"/>
<path fill-rule="evenodd" clip-rule="evenodd" d="M228.821 703.549L231.863 702.463L232.219 693.23C242.892 692.838 248.122 692.643 258.707 692.216L260.664 697.144C260.664 697.144 271.746 694.724 277.848 689.885C292.079 688.284 304.372 690.223 318.051 693.247C318.051 693.247 318.905 700.969 316.895 703.584C316.895 703.584 298.572 705.683 296.224 707" fill="url(#paint1_linear_11_526)"/>
<g style="mix-blend-mode:multiply" opacity="0.4">
<path d="M228.821 703.549L231.863 702.463L232.219 693.23C242.892 692.838 248.122 692.643 258.707 692.216L260.664 697.144C260.664 697.144 271.746 694.724 277.848 689.885C292.079 688.284 304.372 690.223 318.051 693.247C317.945 693.236 317.838 693.236 317.731 693.247C315.472 693.034 301.97 692.002 292.649 691.771H290.621C288.723 691.753 286.826 691.872 284.946 692.127C277.386 693.372 280.41 695.898 267.779 701.414" fill="#2C1852"/>
</g>
<path fill-rule="evenodd" clip-rule="evenodd" d="M231.881 702.445C232.023 698.745 232.077 696.895 232.219 693.212L258.707 692.216C259.49 694.19 259.881 695.187 260.682 697.161C260.682 697.161 271.747 694.706 277.848 689.885C292.079 688.284 304.354 690.223 318.034 693.247C308.423 692.125 298.749 691.626 289.073 691.753C274.237 692.055 277.03 693.532 266.321 697.393C255.95 701.076 243.515 701.947 231.881 702.445Z" fill="#7A496C"/>
<g opacity="0.5">
<path fill-rule="evenodd" clip-rule="evenodd" d="M289.838 699.884C287.308 700.416 284.84 701.209 282.473 702.25C278.93 703.576 275.274 704.583 271.551 705.256C274.389 703.274 277.361 701.491 280.445 699.919C284.306 698.14 289.838 699.884 289.838 699.884Z" fill="white"/>
</g>
</g>
<g style="mix-blend-mode:multiply" opacity="0.4">
<path fill-rule="evenodd" clip-rule="evenodd" d="M123.972 652.47C123.972 652.47 147.614 662.967 150.425 667.753C150.567 665.138 150.638 663.821 150.798 661.206C150.798 661.206 138.951 645.567 123.972 652.47Z" fill="#66044F"/>
</g>
<path fill-rule="evenodd" clip-rule="evenodd" d="M117.23 663.127V662.682C117.302 661.919 117.302 661.151 117.23 660.387C119.845 657.381 121.162 655.886 123.848 652.879L123.972 652.47C138.951 645.567 150.798 661.206 150.798 661.206C150.638 663.821 150.567 665.138 150.425 667.753C138.382 660.174 123.385 661.971 117.213 663.198C117.213 663.18 117.23 663.163 117.23 663.127Z" fill="#953752"/>
<path fill-rule="evenodd" clip-rule="evenodd" d="M96.3815 699.19H96.6661C112.015 701.51 127.563 702.225 143.06 701.325C144.26 698.475 145.802 695.78 147.65 693.301C148.223 692.515 148.972 691.876 149.838 691.433C153.022 689.974 151.314 691.86 151.314 691.86C151.599 689.671 151.759 688.568 152.061 686.38C152.061 686.38 153.965 686.095 154.267 685.58C154.57 685.064 154.374 670.973 149.144 666.009L149.5 660.085C149.5 660.085 137.634 645.852 122.674 652.15L122.531 652.524C122.14 653.52 121.002 656.313 119.383 659.64C117.124 664.364 114.24 668.762 110.808 672.717C104.956 679.068 94.4958 680.562 92.5035 682.11C92.3229 682.328 92.19 682.582 92.1134 682.855C92.0368 683.128 92.0182 683.413 92.0587 683.694C92.0054 687.964 96.3815 699.19 96.3815 699.19Z" fill="url(#paint2_linear_11_526)"/>
<g style="mix-blend-mode:multiply" opacity="0.4">
<path fill-rule="evenodd" clip-rule="evenodd" d="M96.3992 699.19C111.862 701.245 127.473 701.965 143.06 701.342C143.06 701.342 146.725 692.82 149.909 691.397C153.093 689.974 151.385 691.806 151.385 691.806C151.688 689.618 151.848 688.533 152.168 686.345C152.168 686.345 154.071 686.024 154.374 685.526C154.676 685.028 154.374 670.92 149.233 666.081C149.429 666.596 152.115 679.015 146.6 680.171C141.085 681.327 147.472 686.949 138.613 688.8C125.573 691.504 105.881 690.579 92.0052 683.64C92.0408 688.017 96.3992 699.19 96.3992 699.19Z" fill="#2C1852"/>
</g>
<path fill-rule="evenodd" clip-rule="evenodd" d="M152.168 686.38C150.054 688.234 148.49 690.635 147.65 693.319C152.737 691.895 145.871 693.016 151.332 691.842C151.688 689.654 151.848 688.515 152.168 686.38Z" fill="#7A496C"/>
<path opacity="0.5" fill-rule="evenodd" clip-rule="evenodd" d="M140.961 679.424C140.961 679.424 143.291 683.907 140.961 686.362C138.631 688.818 129.256 687.643 129.256 687.643C129.256 687.643 138.506 685.633 140.961 679.424Z" fill="white"/>
<path fill-rule="evenodd" clip-rule="evenodd" d="M228.821 681.897L231.863 683.107L232.219 693.461C242.893 693.906 248.123 694.119 258.707 694.6L260.664 689.067C260.664 689.067 271.747 691.789 277.848 697.215C292.079 698.994 304.372 696.823 318.052 693.443C318.052 693.443 318.905 684.779 316.895 681.861C316.895 681.861 298.573 679.495 296.224 678.018C286.067 671.614 276.247 659.96 266.321 650.958C265.538 647.951 265.129 646.439 264.311 643.432C243.497 646.154 236.898 656.544 236.898 656.544C236.791 659.302 236.738 660.672 236.613 663.43C232.084 668.579 229.35 675.059 228.821 681.897Z" fill="url(#paint3_linear_11_526)"/>
<g style="mix-blend-mode:multiply" opacity="0.4">
<path d="M317.731 693.479C315.472 693.728 301.97 694.884 292.649 695.133H290.621C288.722 695.151 286.824 695.02 284.946 694.742C277.386 693.336 280.41 690.49 267.779 684.334C259.863 680.456 235.012 672.432 240.313 663.447C243.195 658.555 251.467 655.014 257.302 653.04C257.038 652.161 256.991 651.232 257.165 650.331C257.339 649.431 257.728 648.586 258.3 647.869C258.872 647.152 259.609 646.584 260.448 646.214C261.287 645.844 262.204 645.684 263.119 645.745C263.524 645.743 263.929 645.779 264.328 645.852C264.328 645.123 264.328 644.358 264.328 643.432C243.515 646.154 236.915 656.544 236.915 656.544C236.809 659.302 236.755 660.672 236.631 663.43C232.102 668.579 229.367 675.059 228.839 681.897L231.881 683.107L232.237 693.461C242.91 693.906 248.14 694.119 258.725 694.6L260.682 689.067C260.682 689.067 271.764 691.789 277.866 697.215C292.097 698.994 304.389 696.823 318.069 693.443C317.958 693.468 317.845 693.48 317.731 693.479Z" fill="#2C1852"/>
</g>
<path fill-rule="evenodd" clip-rule="evenodd" d="M231.881 683.178C232.023 687.323 232.077 689.387 232.219 693.532L258.707 694.653C259.49 692.429 259.881 691.326 260.682 689.102C260.682 689.102 271.747 691.86 277.848 697.268C292.079 699.047 304.354 696.877 318.034 693.497C308.433 694.751 298.754 695.31 289.073 695.169C274.237 694.831 277.03 693.123 266.321 688.853C255.95 684.672 243.515 683.694 231.881 683.178Z" fill="#7A496C"/>
<g opacity="0.5">
<path fill-rule="evenodd" clip-rule="evenodd" d="M289.838 685.989C287.291 685.386 284.82 684.496 282.473 683.338C278.952 681.857 275.293 680.725 271.551 679.958C274.37 682.148 277.342 684.134 280.445 685.9C284.306 687.946 289.838 685.989 289.838 685.989Z" fill="white"/>
</g>
<path d="M267.068 641.475C265.556 638.771 263.101 634.039 263.51 632.918C263.688 632.562 263.973 632.046 264.311 631.459C264.435 631.21 264.595 630.979 264.738 630.712C264.825 630.582 264.902 630.445 264.969 630.303C266.043 628.717 266.854 626.969 267.37 625.125C267.513 623.684 264.577 619.13 263.243 612.778C263.243 612.529 263.137 612.28 263.101 612.031C262.991 611.526 262.907 611.015 262.852 610.501C262.852 609.967 262.727 609.416 262.674 608.864C262.621 608.313 262.674 607.761 262.674 607.192C262.674 606.623 262.674 606 262.674 605.413C262.674 604.523 262.674 603.314 262.674 601.855C262.674 600.396 262.674 598.848 262.674 597.069C262.674 595.966 262.674 594.774 262.674 593.511C262.674 591.429 262.674 589.205 262.674 586.928C262.674 586.376 262.674 585.825 262.674 585.273C262.674 581.395 262.549 577.303 262.461 573.318V573.211C262.461 572.642 262.461 572.072 262.461 571.432C262.461 566.949 262.318 558.267 262.265 554.495C262.265 553.463 262.265 552.484 262.265 551.541C262.265 550.599 262.265 549.976 262.265 549.264C262.171 546.727 262.278 544.187 262.585 541.667C263.119 539.675 265.093 535.031 267.032 530.512C267.032 530.37 267.121 530.299 267.192 530.174L267.424 529.623C267.424 529.516 267.513 529.409 267.566 529.285C268.278 527.595 269.007 525.94 269.558 524.481C270.189 523.061 270.701 521.591 271.088 520.087C276.425 487.102 280.517 423.677 272.351 390.479C272.191 389.749 271.907 385.141 271.515 378.843C271.515 378.167 271.408 377.456 271.391 376.744C271.391 376.015 271.284 375.25 271.266 374.485C271.248 373.72 271.159 372.919 271.124 372.136C271.15 371.733 271.15 371.329 271.124 370.926C271.035 369.699 270.964 368.489 270.91 367.261C270.91 366.834 270.91 366.39 270.91 365.98C270.91 364.344 270.715 362.725 270.626 361.088C270.359 356.978 267.868 347.478 267.619 343.813C267.513 342.532 267.424 341.304 267.335 340.148C267.246 338.991 267.157 338.137 267.086 337.212C267.086 336.572 266.997 335.985 266.943 335.433C266.943 334.597 266.783 333.796 266.748 333.102C266.712 332.409 266.748 332.195 266.605 331.786C266.463 331.377 266.605 331.395 266.605 331.217C266.598 331.17 266.598 331.121 266.605 331.074C266.605 330.647 266.605 330.256 266.499 329.953C266.392 329.651 266.356 329.242 266.303 329.064C266.3 329.011 266.3 328.957 266.303 328.904L262.389 328.815H259.863H257.408H255.63C254.402 328.815 253.157 328.815 251.929 324.367L246.593 637.277L267.068 641.475Z" fill="#34C7FF"/>
<path fill-rule="evenodd" clip-rule="evenodd" d="M263.172 540.849C262.916 543.355 262.862 545.878 263.012 548.392C263.012 549.122 263.012 549.869 263.012 550.67C263.012 551.47 263.012 552.573 263.012 553.605C263.137 557.359 263.297 566.059 263.439 570.471C263.439 571.04 263.439 571.61 263.439 572.25V572.357C263.599 576.324 263.759 580.381 263.866 584.241V585.896C263.866 588.173 263.99 590.379 264.062 592.443C264.062 593.689 264.062 594.881 264.062 596.001C264.062 597.78 264.062 599.328 264.062 600.752C264.062 602.175 264.062 603.331 264.062 604.221C264.062 604.826 264.062 605.431 264.062 606C264.062 606.569 264.062 607.103 264.168 607.655C264.275 608.206 264.293 608.758 264.382 609.273C264.471 609.789 264.542 610.323 264.649 610.804L264.809 611.551C266.267 617.867 269.309 622.386 269.185 623.827C268.708 625.661 267.933 627.404 266.89 628.986C266.806 629.113 266.729 629.243 266.659 629.377C266.517 629.644 266.356 629.876 266.232 630.125C265.894 630.712 265.627 631.228 265.467 631.566C264.898 633.131 270.181 641.742 270.341 641.991C269.701 642.863 269.185 643.593 268.705 644.286L265.449 648.841V648.948L264.435 649.303L264.097 649.428C261.732 650.324 259.437 651.394 257.231 652.63L256.323 653.146C254.865 653.965 253.442 654.925 252.09 655.744L250.311 656.918L248.959 657.879L247.624 658.857L246.361 659.854L243.978 661.811L242.857 662.771C242.483 663.092 242.128 663.394 241.79 663.714L240.776 664.639C240.26 665.102 239.762 665.547 239.299 665.991C237.983 667.272 236.826 668.429 235.919 669.39C235.528 669.781 235.19 670.172 234.816 670.582L234.603 670.813C234.488 670.906 234.387 671.014 234.3 671.133L234.194 671.258L234.016 671.453L233.874 671.613L233.731 671.774L233.624 671.898L233.518 672.023L233.358 672.201L231.97 669.674C231.846 669.425 231.685 669.176 231.543 668.909C231.241 668.322 230.885 667.682 230.547 667.023C230.333 666.65 230.138 666.276 229.942 665.885C228.323 662.825 226.58 659.391 225.851 657.487C225.682 657.088 225.562 656.67 225.495 656.242C225.495 656.153 225.495 656.1 225.495 656.028V655.797C225.487 655.738 225.487 655.678 225.495 655.619C225.565 655.263 225.66 654.913 225.779 654.57C226.847 651.243 229.782 645.087 229.782 645.087C222.898 615.821 217.81 577.481 220.514 548.054C221.617 536.01 220.71 523.147 219.945 510.942C219.945 509.804 220.105 508.629 220.158 507.384C220.158 505.605 220.265 503.915 220.283 502.171C220.549 482.601 218.219 437.963 215.48 418.464C215.48 418.34 215.48 418.215 215.48 418.108C215.48 418.002 215.48 417.895 215.48 417.806C215.373 417.023 215.302 416.632 215.195 415.849C214.412 410.138 213.79 406.615 213.79 406.615C213.8 406.662 213.8 406.711 213.79 406.758C213.79 406.971 213.629 407.06 213.541 407.274C211.53 411.134 210.534 413.073 208.577 416.934C208.577 416.934 199.398 430.117 195.609 440.169L195.502 440.472C190.166 455.007 184.829 495.126 180.844 510.248C180.851 510.284 180.851 510.32 180.844 510.355C179.83 514.091 179.065 516.884 178.674 518.13C178.403 519.032 178.064 519.912 177.66 520.763C177.233 521.741 176.664 522.773 176.112 523.805L175.152 525.584C174.547 526.652 173.871 527.79 173.177 529.036C172.928 529.392 172.715 529.836 172.483 530.228L172.11 530.868C171.736 531.491 171.345 532.167 170.989 532.879C170.42 533.857 169.815 534.889 169.21 535.956C168.427 537.38 167.538 539.034 166.809 540.653C155.246 567.215 153.68 609.149 152.862 638.237C152.862 643.237 158.074 654.16 157.558 655.708V655.868L157.363 656.295C157.256 656.473 157.149 656.687 157.025 656.882C156.9 657.078 156.775 657.345 156.615 657.612C155.85 658.911 154.836 660.654 153.698 662.362C153.467 662.7 153.253 663.038 153.04 663.376C152.949 663.548 152.848 663.715 152.737 663.874L151.83 665.298C151.528 665.742 151.279 666.152 151.03 666.525C150.781 666.899 150.727 666.988 150.603 667.201L149.998 668.126C149.877 667.89 149.727 667.669 149.553 667.468L149.126 667.095C148.034 666.185 146.795 665.469 145.462 664.977H145.266C144.839 664.817 144.376 664.675 143.95 664.55C143.291 664.373 142.633 664.248 141.975 664.106C141.809 664.027 141.649 663.938 141.495 663.839C140.81 663.64 140.115 663.48 139.413 663.358C138.72 663.234 138.044 663.145 137.368 663.074L135.446 662.504L134.397 662.184C133.685 661.971 132.974 661.793 132.244 661.65C129.84 661.093 127.348 661.02 124.915 661.437L124.382 661.544H124.204L124.026 661.633L123.688 661.828H123.385H123.296C122.537 661.846 121.788 662.009 121.091 662.309H120.895L120.521 662.487C120.138 662.672 119.769 662.886 119.418 663.127C119.17 663.271 118.933 663.431 118.707 663.607L118.44 663.785L117.408 664.55C116.021 664.711 115.238 658.27 116.27 657.434C116.404 657.306 116.546 657.187 116.697 657.078C116.794 656.979 116.902 656.889 117.017 656.811C117.056 656.775 117.085 656.731 117.104 656.682C117.123 656.632 117.129 656.579 117.124 656.527C117.124 656.064 116.199 653.805 115.256 651.189L114.615 649.41C114.402 648.823 114.188 648.236 113.993 647.631C113.797 647.026 113.512 646.137 113.299 645.443C112.931 644.431 112.721 643.369 112.676 642.294C112.836 640.177 116.323 634.306 117.035 630.712C117.121 630.392 117.175 630.064 117.195 629.733C117.195 628.773 117.195 625.303 117.195 620.589C117.195 619.806 117.195 618.97 117.195 618.116C117.195 616.337 117.195 614.557 117.195 612.672C117.195 611.711 117.195 610.75 117.195 609.772C117.195 607.156 117.195 604.434 117.195 601.783C117.195 601.196 117.195 600.609 117.195 600.004C117.195 596.446 117.319 593.048 117.373 589.917C117.373 589.401 117.373 588.903 117.373 588.387C117.373 587.871 117.373 587.248 117.373 586.714C117.373 585.095 117.497 583.583 117.55 582.231C117.55 581.342 117.55 580.541 117.675 579.811C117.675 579.438 117.675 579.064 117.675 578.655C118.361 569.56 119.501 560.505 121.091 551.524C121.393 549.994 121.695 548.446 122.016 546.969C122.122 546.471 122.229 545.973 122.354 545.492C122.567 544.496 122.798 543.535 123.03 542.628C123.492 540.849 123.99 539.07 124.524 537.451C124.791 536.633 125.04 535.885 125.307 535.191C125.716 534.124 126.125 533.145 126.534 532.309C129.345 526.438 133.223 516.173 135.873 509.181L136.585 507.224C137.281 505.354 137.875 503.447 138.364 501.513C141.584 480.164 142.989 431.025 147.098 408.643C147.454 406.775 147.828 404.836 148.183 402.879C148.913 398.734 149.286 396.385 149.784 392.365C149.776 392.215 149.734 392.069 149.66 391.938C150.11 387.81 150.549 383.659 150.976 379.484C150.976 378.897 151.101 378.292 151.154 377.705C151.545 374.04 151.919 370.393 152.275 366.728C152.275 367.101 152.471 367.51 152.577 367.991C153.2 362.262 159.07 343.226 161.685 335.326C161.988 334.49 162.272 333.69 162.504 332.96C162.596 332.734 162.674 332.503 162.735 332.266C162.789 332.061 162.855 331.859 162.931 331.661C163.375 330.327 163.695 329.366 163.82 328.957C163.82 328.957 163.82 328.957 163.82 328.868C163.98 328.423 164.087 328.103 164.158 327.925V327.712C176.61 330.398 181.218 332.747 194.115 333.049C211.904 333.405 227.238 328.388 244.992 328.797H248.265L252.143 328.886H253.922H256.395H258.938H262.852V329.046C262.852 329.224 262.977 329.526 263.065 329.936C263.154 330.345 263.065 330.63 263.19 331.039C263.181 331.086 263.181 331.134 263.19 331.181C263.19 331.359 263.19 331.555 263.19 331.75C263.19 331.946 263.279 332.587 263.35 333.067C263.421 333.547 263.51 334.544 263.599 335.38C263.599 335.949 263.724 336.536 263.759 337.159C263.848 338.084 263.955 339.063 264.062 340.094C264.168 341.126 264.311 342.461 264.435 343.653C264.738 347.3 267.442 356.747 267.78 360.839L268.153 365.696C268.215 366.114 268.251 366.536 268.26 366.959C268.26 368.204 268.42 369.414 268.527 370.517C268.588 370.918 268.624 371.322 268.633 371.727C268.633 372.528 268.776 373.31 268.811 374.075C268.847 374.84 268.936 375.588 268.989 376.317C268.989 377.029 269.078 377.723 269.149 378.416C269.665 384.679 270.039 389.269 270.199 389.981C279.093 423.001 275.536 486.23 270.91 519.073C270.554 520.566 270.066 522.025 269.452 523.432C268.9 524.89 268.224 526.527 267.531 528.217C267.481 528.327 267.44 528.44 267.406 528.555C267.317 528.733 267.246 528.911 267.175 529.089L267.015 529.445C265.574 534.32 263.688 538.928 263.172 540.849Z" fill="url(#paint4_linear_11_526)"/>
<g style="mix-blend-mode:multiply" opacity="0.6">
<path d="M270.715 642.063C270.074 642.934 269.558 643.664 269.078 644.358L265.823 648.912V649.019L264.471 649.517C263.759 649.766 263.048 650.069 262.336 650.389C261.625 650.709 261.34 650.816 260.842 651.065C259.721 651.599 258.618 652.168 257.515 652.844L256.608 653.36C255.185 654.178 253.78 655.05 252.445 655.94L250.666 657.114L249.314 658.075L247.98 659.053L246.717 660.049C245.881 660.708 245.098 661.348 244.334 662.006L243.213 662.967L242.145 663.91L241.131 664.835C240.616 665.315 240.117 665.778 239.673 666.223C237.716 668.002 236.222 669.674 235.172 670.777L234.959 671.009C234.845 671.102 234.743 671.21 234.656 671.329L234.55 671.453L234.372 671.649L234.229 671.809L234.087 671.969L233.98 672.094L233.874 672.218L233.713 672.396L232.326 669.87C232.201 669.621 232.041 669.372 231.899 669.105C231.597 668.518 231.241 667.877 230.903 667.219C230.689 666.845 230.494 666.472 230.298 666.08C228.679 663.02 226.936 659.587 226.206 657.683C226.038 657.284 225.918 656.866 225.851 656.438C225.851 656.349 225.851 656.295 225.851 656.224V655.993C225.842 655.934 225.842 655.874 225.851 655.815C225.921 655.459 226.016 655.108 226.135 654.765C227.203 651.438 230.138 645.283 230.138 645.283C223.253 616.016 218.166 577.677 220.87 548.25C221.973 536.206 221.065 523.343 220.3 511.138C220.3 509.999 220.461 508.825 220.514 507.58C221.386 487.12 219.233 441.753 216.298 421.364V421.044C216.298 420.457 216.156 420.083 216.049 419.407C216.049 419.105 216.049 418.962 215.889 418.66C215.729 418.357 215.889 418.411 215.889 418.304C215.106 414.052 214.679 411.81 213.843 407.469C213.843 407.078 213.736 406.882 213.665 406.491C214.11 402.559 214.394 400.317 214.786 396.884C214.786 396.261 214.928 395.603 215.017 394.891C205.956 387.253 196.771 379.727 187.462 372.314C191.446 378.452 193.403 381.512 197.264 387.65C200.252 393.503 201.729 396.403 204.61 402.274C196.534 394.428 186.323 382.615 177.446 380.694C174.12 379.982 165.67 385.764 162.504 388.077C152.755 395.193 151.67 414.924 149.322 427.591C146.351 443.763 138.648 488.668 141.192 502.42C142.704 510.889 150.211 525.3 157.878 530.566C161.774 533.252 176.539 522.133 177.891 521.065C177.411 522.079 176.859 523.111 176.255 524.179C175.952 524.766 175.632 525.3 175.294 525.958C174.689 527.025 174.013 528.164 173.319 529.409C173.07 529.765 172.857 530.21 172.626 530.601L172.252 531.242C171.896 531.882 171.523 532.576 171.131 533.252C170.562 534.231 169.957 535.263 169.352 536.33C168.57 537.753 167.68 539.408 166.951 541.027C155.388 567.589 153.823 609.523 153.004 638.611C145.284 628.47 138.488 617.422 135.215 605.413C135.26 606.051 135.337 606.686 135.446 607.316C135.446 607.566 135.446 607.797 135.446 608.01C136.279 613.965 137.467 619.864 139.004 625.677C139.08 625.803 139.135 625.942 139.164 626.086C140.207 630.204 141.594 634.227 143.309 638.113C146 644.257 150.022 649.726 155.086 654.125C155.655 654.641 156.135 655.014 156.509 655.299C156.897 655.604 157.301 655.889 157.718 656.153V656.313L157.523 656.74C157.416 656.918 157.309 657.132 157.185 657.327C157.06 657.523 156.936 657.79 156.775 658.057C156.011 659.355 154.997 661.099 153.858 662.807C153.627 663.145 153.413 663.483 153.2 663.821C153.11 663.993 153.009 664.16 152.897 664.319L151.99 665.742C151.688 666.187 151.439 666.596 151.19 666.97C150.941 667.344 150.887 667.433 150.763 667.646L150.158 668.571C150.037 668.335 149.888 668.114 149.713 667.913L149.286 667.539C148.194 666.63 146.955 665.914 145.622 665.422H145.426C144.999 665.262 144.537 665.12 144.11 664.995C143.451 664.817 142.793 664.693 142.135 664.55C141.969 664.472 141.809 664.383 141.655 664.284C140.97 664.085 140.276 663.925 139.573 663.803C138.88 663.679 138.204 663.59 137.528 663.519L135.606 662.949L134.557 662.629C133.845 662.416 133.134 662.238 132.404 662.095C130 661.538 127.508 661.465 125.075 661.882L124.542 661.989H124.364L124.186 662.077L123.848 662.273H123.545H123.456C122.697 662.29 121.948 662.453 121.251 662.754H121.055L120.681 662.931C120.298 663.117 119.93 663.331 119.578 663.572C119.331 663.716 119.093 663.876 118.867 664.052L118.6 664.23L117.568 664.995C117.823 664.61 118.02 664.191 118.155 663.75C118.241 663.615 118.312 663.472 118.369 663.323L118.493 663.163C121.268 660.209 124.168 656.882 126.659 653.787C127.37 652.897 128.046 652.008 128.669 651.189L128.864 650.922C130.473 648.853 131.718 646.524 132.547 644.037C129.523 647.062 127.904 648.699 125.182 651.492L124.382 652.328L124.168 652.559L123.901 652.844L122.122 654.089C120.275 655.53 118.284 656.776 116.181 657.808C116.315 657.679 116.458 657.561 116.608 657.452C116.705 657.353 116.813 657.263 116.928 657.185C119.792 654.783 122.531 652.328 122.976 651.189C121.126 653.201 119.154 655.096 117.07 656.865C117.07 656.402 116.145 654.143 115.202 651.527L114.562 649.748C114.348 649.161 114.135 648.574 113.939 647.969C113.744 647.364 113.441 646.457 113.246 645.781C112.878 644.769 112.668 643.707 112.623 642.632C113.281 641.974 122.585 633.096 126.232 627.936C126.598 627.421 126.937 626.887 127.246 626.335C127.376 626.059 127.525 625.792 127.69 625.535C128.905 623.162 129.854 620.662 130.519 618.08C130.527 618.027 130.527 617.973 130.519 617.92C130.75 617.013 130.91 616.265 131.017 615.767C131.017 615.554 131.017 615.358 131.106 615.162C131.114 615.127 131.114 615.091 131.106 615.056C130.519 615.821 120.023 629.609 116.875 631.068C116.961 630.748 117.015 630.42 117.035 630.089C117.035 629.128 117.035 625.659 117.035 620.944C117.035 620.162 117.035 619.325 117.035 618.472C117.035 616.692 117.035 614.913 117.035 613.027C117.035 612.067 117.035 611.106 117.035 610.128C117.035 607.512 117.035 604.79 117.035 602.139C117.035 601.552 117.035 600.965 117.035 600.36C117.035 596.802 117.159 593.386 117.213 590.273C117.213 589.757 117.213 589.259 117.213 588.743C117.213 588.227 117.213 587.604 117.213 587.07C117.213 585.451 117.319 583.903 117.39 582.587C117.39 581.697 117.39 580.897 117.515 580.167C117.515 579.794 117.515 579.42 117.515 579.011C117.96 572.944 119.205 559.743 120.735 551.541C121.019 550.029 121.34 548.481 121.66 546.987C121.767 546.489 121.873 545.991 121.998 545.51C122.211 544.514 122.443 543.553 122.674 542.646C123.136 540.867 123.634 539.088 124.168 537.469C124.435 536.65 124.684 535.903 124.951 535.209C125.36 534.142 125.769 533.163 126.178 532.327C128.989 526.456 132.867 516.191 135.518 509.199L136.229 507.242C136.925 505.372 137.519 503.465 138.008 501.531C141.228 480.181 142.633 431.042 146.742 408.661C147.098 406.793 147.472 404.854 147.828 402.897C148.575 398.645 148.824 396.19 149.304 391.884C149.784 387.579 150.194 383.611 150.62 379.43C150.62 378.843 150.745 378.238 150.798 377.651C151.19 373.986 151.563 370.339 151.919 366.674C152.809 357.779 158.483 343.67 161.33 335.273C161.632 334.437 161.917 333.636 162.148 332.907C162.241 332.681 162.318 332.449 162.379 332.213C162.434 332.008 162.499 331.806 162.575 331.608C162.966 330.434 163.304 329.491 163.5 328.815C163.66 328.37 163.767 328.05 163.838 327.872V327.658C176.29 330.345 180.898 332.693 193.795 332.996C211.584 333.334 226.918 328.334 244.672 328.744H247.945L251.823 328.833H253.602H256.074H258.618H262.532V328.993C262.532 329.171 262.639 329.473 262.692 329.882C262.745 330.291 262.816 330.558 262.87 330.985C262.861 331.032 262.861 331.081 262.87 331.128C262.87 331.306 262.87 331.501 262.87 331.697C262.87 331.893 262.959 332.533 263.03 333.014C263.101 333.494 263.19 334.49 263.279 335.326C263.279 335.896 263.403 336.483 263.439 337.105C263.528 338.031 263.635 339.009 263.741 340.041C263.848 341.073 263.99 342.407 264.115 343.599C264.578 348.687 267.406 359.967 267.833 365.642C267.895 366.061 267.931 366.483 267.94 366.906C267.94 368.151 268.1 369.361 268.207 370.464C268.268 370.864 268.303 371.268 268.313 371.674C268.313 372.474 268.456 373.257 268.491 374.022C268.527 374.787 268.616 375.534 268.669 376.264C268.669 376.975 268.758 377.669 268.829 378.363C269.345 384.625 269.719 389.216 269.879 389.927C268.776 390.924 248.532 409.497 247.055 413.821C240.349 432.59 240.349 486.177 244.049 507.135C246.433 520.603 269.132 523.378 269.132 523.378C268.58 524.837 267.904 526.474 267.21 528.164C267.161 528.274 267.119 528.387 267.086 528.502C266.997 528.68 266.926 528.858 266.855 529.036L266.694 529.392C264.827 533.893 262.941 538.501 262.425 540.493C262.169 542.999 262.115 545.522 262.265 548.037C262.265 548.766 262.265 549.513 262.265 550.314C262.265 551.114 262.265 552.218 262.265 553.249C262.372 557.021 262.532 565.703 262.692 570.115C262.692 570.685 262.692 571.254 262.692 571.894V572.001C262.816 575.969 262.994 580.043 263.119 583.886V585.54C263.119 587.8 263.261 590.024 263.315 592.087C263.315 593.333 263.315 594.525 263.315 595.646C263.315 597.425 263.315 598.972 263.315 600.396C263.315 601.819 263.315 602.976 263.315 603.865C263.315 604.47 263.315 605.075 263.315 605.644C263.315 606.213 263.315 606.747 263.421 607.299C263.528 607.85 263.546 608.402 263.635 608.918C263.724 609.434 263.795 609.95 263.902 610.448L264.062 611.195C257.136 602.406 250.02 593.736 242.715 585.184C250.506 598.03 257.996 612.28 268.473 623.471C267.997 625.305 267.222 627.048 266.179 628.63C266.095 628.757 266.018 628.887 265.947 629.022C265.805 629.288 265.645 629.52 265.52 629.769C265.248 630.246 265.004 630.739 264.791 631.246C259.526 628.721 254.824 625.16 250.967 620.777C247.11 616.393 244.176 611.277 242.341 605.733C242.537 606.783 243.569 611.248 245.098 616.408V616.568C245.098 616.71 245.098 616.853 245.187 616.995C246.286 620.549 247.574 624.041 249.048 627.456L249.154 627.741C250.1 629.906 251.294 631.954 252.712 633.843C255.365 637.103 258.974 639.449 263.03 640.55L263.332 640.639C263.813 640.799 264.275 640.906 264.72 641.013C265.14 641.128 265.568 641.212 266.001 641.262H266.303C266.89 641.369 267.477 641.44 267.904 641.475H268.527H269.612L270.715 642.063Z" fill="#3C2E92"/>
</g>
<g style="mix-blend-mode:multiply" opacity="0.6">
<path fill-rule="evenodd" clip-rule="evenodd" d="M148.237 524.837C148.237 524.837 155.085 532.256 156.9 532.879C158.714 533.501 170.651 529.819 170.651 529.819C170.651 529.819 158.323 540.262 155.335 540.369C152.346 540.475 148.237 524.837 148.237 524.837Z" fill="#3C2E92"/>
</g>
<g style="mix-blend-mode:multiply" opacity="0.6">
<path fill-rule="evenodd" clip-rule="evenodd" d="M117.284 664.906C117.639 664.533 117.853 663.412 118.227 663.003C121.784 659.16 125.502 654.89 128.349 651.083C130.118 648.949 131.536 646.547 132.547 643.966C135.749 632.509 135.393 619.432 135.411 607.192C135.411 607.441 135.411 607.672 135.411 607.886C136.089 613.86 137.279 619.764 138.969 625.535C139.032 625.671 139.08 625.814 139.111 625.962C143.718 642.205 151.261 650.584 155.121 653.947C155.58 654.364 156.061 654.756 156.562 655.121C157.327 655.708 157.754 655.975 157.754 655.975C157.291 657.381 151.136 666.828 150.122 668.429C150.001 668.187 149.852 667.96 149.678 667.753C148.093 666.293 146.156 665.269 144.056 664.782C143.398 664.604 142.74 664.479 142.082 664.337L141.584 664.07C140.24 663.69 138.865 663.434 137.474 663.305C135.695 662.825 134.077 662.238 132.333 661.882C129.745 661.295 127.059 661.295 124.47 661.882C124.234 661.958 124.012 662.073 123.812 662.22C123.676 662.213 123.539 662.213 123.403 662.22C121.131 662.547 119.018 663.573 117.355 665.155L117.284 664.906Z" fill="#3C2E92"/>
</g>
<g style="mix-blend-mode:multiply" opacity="0.6">
<path fill-rule="evenodd" clip-rule="evenodd" d="M112.516 642.632C116.874 636.263 129.896 625.89 131.088 615.002C131.088 615.002 130.981 631.014 129.54 638.362C128.099 645.71 117.088 656.829 117.088 656.829C117.088 656.829 111.467 644.162 112.516 642.632Z" fill="#3C2E92"/>
</g>
<g style="mix-blend-mode:multiply" opacity="0.6">
<path fill-rule="evenodd" clip-rule="evenodd" d="M270.697 642.045C268.687 644.82 267.691 646.226 265.716 649.001C253.264 653.342 241.79 662.825 233.696 672.343C233.696 672.343 225.904 658.359 225.851 656.331C225.888 655.723 226.014 655.124 226.224 654.552C226.224 654.552 248.051 641.209 249.119 640.959C250.186 640.71 246.966 621.087 246.13 616.052C248.069 627.243 256.252 642.258 270.697 642.045Z" fill="#3C2E92"/>
</g>
<g style="mix-blend-mode:multiply" opacity="0.6">
<path fill-rule="evenodd" clip-rule="evenodd" d="M214.661 396.884C228.732 395.104 243.32 385.8 252.018 375.748C245.116 385.693 241.754 390.657 235.19 400.655C227.469 408.964 223.698 413.109 216.333 421.435C215.657 411.579 215.337 406.686 214.661 396.884Z" fill="#3C2E92"/>
</g>
<g style="mix-blend-mode:multiply" opacity="0.6">
<path fill-rule="evenodd" clip-rule="evenodd" d="M162.575 333.458C162.513 333.762 162.424 334.06 162.308 334.348C162.695 334.921 163.052 335.515 163.375 336.127C168.178 343.973 184.046 353.367 191.108 350.36C194.666 348.794 201.106 351.338 206.3 352.744C223.36 357.37 251.076 351.765 262.656 336.732C238.997 334.953 217.703 336.91 194.382 332.978C181.502 332.676 176.948 330.256 164.425 327.498C164.425 327.498 164.282 327.996 163.962 328.975C163.642 329.953 163.162 331.572 162.575 333.458Z" fill="#3C2E92"/>
</g>
<g style="mix-blend-mode:multiply" opacity="0.6">
<path fill-rule="evenodd" clip-rule="evenodd" d="M263.279 540.849C257.717 536.428 253.193 530.841 250.026 524.481C250.026 524.481 261.358 531.438 262.799 531.598C264.239 531.758 268.029 528.555 268.029 528.555C266.018 533.519 265.058 535.974 263.279 540.849Z" fill="#3C2E92"/>
</g>
<path style="mix-blend-mode:multiply" opacity="0.5" fill-rule="evenodd" clip-rule="evenodd" d="M195.68 440.685C191.037 455.238 185.007 495.357 181.04 510.497V510.604C182.374 488.703 182.819 437.856 189.934 419.976C190.724 418.404 191.604 416.877 192.567 415.404C198.242 422.432 198.26 432.661 195.68 440.685Z" fill="url(#paint5_linear_11_526)"/>
<path style="mix-blend-mode:multiply" opacity="0.72" fill-rule="evenodd" clip-rule="evenodd" d="M169.352 536.188C168.587 537.647 167.68 539.266 166.951 540.92C155.406 567.607 154.836 608.526 152.969 638.522C147.632 625.908 142.9 612.191 142.864 599.079C142.864 583.69 147.134 555.633 157.95 544.389C161.314 541.095 165.159 538.329 169.352 536.188Z" fill="url(#paint6_linear_11_526)"/>
<path style="mix-blend-mode:multiply" opacity="0.7" fill-rule="evenodd" clip-rule="evenodd" d="M238.854 375.392C238.854 374.645 241.06 368.685 240.633 367.991C239.246 365.393 228.697 363.792 213.701 361.266C201.064 358.817 188.701 355.128 176.788 350.253C184.135 355.59 187.746 358.33 194.862 363.721C194.862 363.721 194.097 366.425 183.263 369.788C172.044 377.082 160.885 384.471 149.784 391.955C150.235 387.828 150.674 383.677 151.101 379.502L151.545 379.946C151.545 379.164 151.368 378.416 151.279 377.723C151.67 374.058 152.044 370.41 152.399 366.745C152.399 367.119 152.595 367.528 152.702 368.009C153.324 362.28 159.195 343.243 161.81 335.344C162.112 334.508 162.397 333.707 162.628 332.978C162.721 332.752 162.798 332.52 162.859 332.284C162.914 332.079 162.979 331.877 163.055 331.679C163.5 330.345 163.82 329.384 163.944 328.975C163.944 328.975 163.944 328.975 163.944 328.886C164.105 328.441 164.211 328.121 164.282 327.943V327.73C176.735 330.416 181.342 332.764 194.239 333.067C212.028 333.423 227.363 328.406 245.116 328.815H248.389L263.154 330.185C263.154 330.487 263.154 330.879 263.279 331.288C263.27 331.335 263.27 331.383 263.279 331.43C263.279 331.608 263.279 331.804 263.279 331.999C263.279 332.195 263.368 332.836 263.439 333.316C263.51 333.796 263.599 334.793 263.688 335.629C263.688 336.198 263.813 336.785 263.848 337.408C263.937 338.333 264.044 339.312 264.151 340.343C264.257 341.375 264.4 342.71 264.524 343.902C264.826 347.549 267.53 356.996 267.868 361.088C258.992 362.262 247.5 370.499 238.854 375.392Z" fill="url(#paint7_linear_11_526)"/>
<path d="M244.832 127.384C244.921 127.971 244.974 128.274 244.974 128.274C244.379 130.827 243.642 133.345 242.768 135.817C240.813 141.589 238.013 147.039 234.461 151.989C233.402 153.503 232.211 154.92 230.903 156.224C211.441 150.121 201.853 131.085 198.171 121.62C198.163 121.567 198.163 121.513 198.171 121.46C197.459 119.681 196.997 118.24 196.694 117.314C196.481 116.567 196.374 116.158 196.374 116.158L196.605 115.66C196.925 115.002 197.246 114.308 197.548 113.667C199.732 108.852 201.517 103.866 202.885 98.7583C203.828 95.2001 204.344 92.567 204.664 91.1437C204.788 90.4143 204.842 90.0051 204.842 90.0051L213.914 94.7909L245.152 111.337C244.733 113.955 244.513 116.602 244.494 119.254C244.458 120.731 244.499 122.21 244.618 123.684C244.707 125.231 244.867 126.459 244.992 127.242C244.93 127.279 244.876 127.328 244.832 127.384Z" fill="#FE9083"/>
<path d="M236.168 158.341C234.266 160.234 232.089 161.829 229.711 163.073H229.551L229.355 162.966C227.239 161.679 225.19 160.284 223.218 158.785C215.07 152.683 201.426 140.247 197.459 123.488C196.99 121.475 196.674 119.429 196.516 117.368C196.516 116.816 196.516 116.265 196.516 115.713C198.59 120.334 201.067 124.763 203.917 128.95C209.449 137.027 217.721 145.851 227.63 145.905C236.186 145.905 240.58 140.087 242.804 134.696C243.612 132.719 244.208 130.661 244.583 128.558C244.583 128.078 244.743 127.651 244.814 127.295C244.814 127.117 244.814 126.957 244.814 126.815C244.814 126.21 244.921 125.854 244.921 125.854C244.921 125.854 248.265 146.225 236.168 158.341Z" fill="url(#paint8_linear_11_526)"/>
<path style="mix-blend-mode:multiply" opacity="0.5" d="M236.168 158.341C234.266 160.234 232.089 161.829 229.711 163.073H229.355C227.239 161.786 225.19 160.391 223.218 158.892C215.07 152.683 201.426 140.247 197.459 123.488C196.99 121.475 196.674 119.429 196.516 117.368C196.516 116.816 196.516 116.265 196.516 115.713C198.59 120.334 201.067 124.763 203.917 128.95C203.917 128.95 209.253 143.752 220.959 151.082C226.811 154.747 231.241 154.213 234.496 152.06C237.457 149.818 239.741 146.801 241.096 143.343C242.151 140.992 242.755 138.463 242.875 135.888C242.875 135.444 242.875 135.052 242.875 134.696C243.683 132.719 244.279 130.661 244.654 128.558C244.654 128.078 244.814 127.651 244.885 127.295C244.885 127.117 244.885 126.957 244.885 126.815C244.885 126.21 244.992 125.854 244.992 125.854C244.992 125.854 248.265 146.225 236.168 158.341Z" fill="url(#paint9_linear_11_526)"/>
<path d="M311.06 279.32L310.847 279.427C309.762 279.551 306.364 278.804 301.952 274.961C296.636 269.936 292.331 263.939 289.269 257.295C280.374 239.504 277.777 227.512 277.368 225.431V225.111L272.156 233.383C268.598 244.058 261.927 288.002 262.034 289.888C262.14 291.774 267.975 301.025 267.851 302.146C267.691 303.285 265.076 305.811 264.293 308.569C263.777 310.348 267.317 316.148 269.825 320.453C270.823 321.926 271.596 323.539 272.12 325.239C272.12 327.249 265.787 337.105 265.787 337.105V342.443L265.698 342.55L265.396 342.816L265.164 343.012C262.763 344.898 252.588 351.107 220.692 352.815C183.014 354.825 157.914 342.71 157.914 342.71L159.817 337.515C159.817 337.515 158.038 336.002 157.914 335.237C157.789 334.472 159.301 332.711 159.301 332.711C159.301 332.711 155.512 330.701 155.512 328.157C155.512 325.612 163.108 317.802 162.859 311.095C162.61 304.388 156.793 298.463 156.028 294.674C155.263 290.884 165.883 281.544 165.883 281.544C156.793 252.722 155.014 214.062 155.014 214.062L153.235 212.034C153.235 212.034 142.313 236.621 132.44 248.826C131.266 250.267 130.021 251.69 128.74 253.06C126.064 255.948 123.231 258.686 120.254 261.262C113.423 267.222 107.233 271.118 105.65 270.816C103.123 270.3 93.0014 250.338 93.4817 229.896C93.6952 220.165 99.5656 209.259 105.65 200.523C106.308 199.598 106.966 198.744 107.624 197.783C110.862 193.378 114.354 189.167 118.084 185.17C118.849 184.351 119.294 183.906 119.294 183.906C119.294 183.906 117.906 179.441 116.963 175.562C116.974 175.468 116.974 175.372 116.963 175.278C116.963 175.278 116.963 175.278 116.963 175.135C116.419 173.541 116.219 171.849 116.376 170.172C117.212 168.82 122.122 167.307 122.958 166.311C123.794 165.315 127.334 148.271 130.074 146.421C132.813 144.57 137.19 143.343 152.382 137.383L154.694 136.475C171.7 129.75 188.387 121.566 188.387 121.566L194.773 113.703H197.459L196.516 115.642C196.979 117.67 197.495 119.609 198.082 121.46C198.074 121.513 198.074 121.567 198.082 121.62C206.905 149.445 229.48 158.341 229.48 158.341C245.223 146.723 244.903 128.274 244.903 128.274V125.73L247.856 126.619L249.866 131.423C249.866 131.423 253.281 136.76 266.801 142.684C269.348 143.81 271.83 145.075 274.237 146.474C286.689 153.59 300.387 164.372 301.436 166.685C301.588 167.059 301.707 167.446 301.792 167.841C303.251 173.552 306.24 194.937 309.015 202.569C310.186 206.102 312.454 209.169 315.49 211.323C316.283 211.886 317.151 212.335 318.069 212.657C318.283 213.831 318.478 215.005 318.674 216.215C324.58 252.74 313.551 277.541 311.06 279.32Z" fill="url(#paint10_linear_11_526)"/>
<path style="mix-blend-mode:multiply" opacity="0.5" d="M165.919 210.255L154.925 213.956L153.146 211.927C153.146 211.927 142.313 236.621 132.44 248.826C131.266 250.267 130.021 251.691 128.74 253.06C126.064 255.948 123.231 258.686 120.254 261.262L111.876 225.146L107.624 197.748C110.862 193.343 114.354 189.131 118.084 185.134C118.849 184.316 119.294 183.871 119.294 183.871C119.294 183.871 117.906 179.405 116.963 175.527C116.974 175.432 116.974 175.337 116.963 175.242C116.963 175.242 116.963 175.242 116.963 175.1C116.419 173.505 116.219 171.814 116.376 170.136C117.212 168.784 122.122 167.272 122.958 166.276C123.794 165.279 127.334 148.235 130.074 146.385C130.074 146.385 128.295 162.717 137.67 183.444L142.224 189.849L155.53 200.523C158.415 204.334 161.928 207.625 165.919 210.255Z" fill="url(#paint11_linear_11_526)"/>
<path d="M134.112 239.806C131.746 257.33 105.65 270.816 105.65 270.816C99.8325 270.816 93.3395 260.711 87.4513 248.239C81.5631 235.767 81.1895 199.936 80.8871 197.712C80.5847 195.488 77.3293 191.076 77.0802 189.173C76.8312 187.269 82.417 183.355 82.417 183.355V183.266C81.8477 182.038 78.6101 175.118 78.8591 173.855C79.1082 172.591 85.2988 169.425 85.2988 169.425L85.5478 176.132C85.5478 176.132 99.9392 173.41 104.796 162.273L105.65 158.857L108.051 160.458V175.118C108.051 175.118 108.549 177.395 109.314 177.395C110.079 177.395 115.665 174.584 116.839 174.975C118.013 175.367 119.187 183.248 120.77 184.245C122.354 185.241 126.498 188.159 127.121 189.582C127.442 191.407 127.556 193.264 127.459 195.115C127.387 198.214 127.571 201.315 128.01 204.384C128.9 208.262 136.478 222.282 134.112 239.806Z" fill="url(#paint12_linear_11_526)"/>
<path d="M372.842 224.808C371.668 226.587 365.726 230.537 364.268 232.067C362.809 233.597 364.268 238.561 364.268 238.561C348.895 254.982 330.918 268.754 311.06 279.32L310.847 279.427C295.299 268.966 296.616 251.744 301.792 237.226C305.213 228.036 309.843 219.342 315.561 211.376C318.089 210.309 320.743 209.574 323.459 209.188C324.506 209.154 325.534 209.473 326.377 210.095C328.263 211.269 329.935 213.119 331.411 212.337C333.688 211.198 338.794 199.153 342.245 198.815C344.664 198.584 348.008 201.039 350.232 202.374C351.21 202.996 352.011 203.405 352.349 203.299C353.612 202.961 357.899 197.819 358.255 197.677C358.611 197.534 360.55 198.976 360.55 198.976L359.162 200.755C360.517 208.139 363.629 215.09 368.235 221.019L372.86 214.24C372.86 214.24 374.034 222.958 372.842 224.808Z" fill="url(#paint13_linear_11_526)"/>
<path d="M244.903 126.868C244.903 127.046 244.903 127.224 244.903 127.384C244.839 127.744 244.755 128.1 244.654 128.452C243.07 134.323 236.649 140.354 228.643 137.454C219.624 134.323 202.796 98.6694 202.796 98.6694L204.575 91.0548L244.529 123.595L244.956 126.69L244.903 126.868Z" fill="#CB4D7A"/>
<path d="M111.876 120.339C111.876 120.339 109.439 106.871 110.524 96.9259C111.147 89.8606 111.069 82.7511 110.293 75.7011C109.628 75.4231 108.914 75.28 108.193 75.28C107.473 75.28 106.759 75.4231 106.094 75.7011C104.315 76.6974 100.206 86.9806 102.056 95.2713C103.906 103.562 102.483 123.328 102.483 123.328H99.619L93.553 114.984L90.7245 114.112C90.7245 114.112 73.7537 130.124 74.0027 139.642L76.2264 148.111L97.1286 147.381L110.773 131.796L111.876 120.339Z" fill="#EE8183"/>
<path d="M90.7245 114.112C91.0615 120.755 92.0023 127.353 93.5352 133.825C93.3626 134.952 92.7854 135.979 91.9113 136.712C91.0373 137.446 89.9262 137.836 88.7855 137.81L87.7182 136.6C87.7182 136.6 86.9532 140.834 83.093 141.154L79.4285 137.49L80.3891 140.514C79.9795 141.445 79.3065 142.236 78.4531 142.789C77.5996 143.342 76.603 143.634 75.586 143.627C75.586 143.627 69.769 139.073 69.3954 133.131L75.1413 128.256V124.538L81.83 119.734L81.9723 117.012C84.5394 115.202 87.5848 114.193 90.7245 114.112Z" fill="url(#paint14_linear_11_526)"/>
<path style="mix-blend-mode:multiply" opacity="0.6" d="M110.773 94.0793C110.235 95.4409 109.389 96.6591 108.3 97.6375C106.504 98.4841 104.601 99.0826 102.643 99.4166L102.447 123.292H99.619L93.5529 114.948C95.1927 117.48 96.3003 120.319 96.8083 123.292L94.4602 124.538L92.3789 117.421L91.3827 122.563L92.3789 128.95C95.3096 126.811 98.8552 125.681 102.483 125.73L103.461 127.509C103.461 127.509 91.6851 137.169 88.9456 142.916C88.9456 142.916 94.7626 135.533 108.033 127.384L109.296 123.47L110.968 114.112C110.968 114.112 109.403 100.626 110.773 94.0793Z" fill="url(#paint15_linear_11_526)"/>
<path d="M120.646 135.586C119.543 138.877 108.087 152.523 106.824 155.476C105.949 157.69 105.27 159.976 104.796 162.308C99.1743 174.477 85.5478 176.132 85.5478 176.132L84.9252 165.137C84.9252 165.137 77.5961 160.92 76.3686 158.608L76.2263 158.216C76.0405 154.85 76.0405 151.477 76.2263 148.111L88.9455 142.916C94.5135 135.799 108.033 127.384 108.033 127.384L108.656 123.595C98.9608 118.827 100.58 104.38 102.216 102.601C103.513 101.468 105.173 100.837 106.895 100.822C106.895 100.822 110.453 112.44 112.712 117.884C114.971 123.328 121.731 132.312 120.646 135.586Z" fill="url(#paint16_linear_11_526)"/>
<path d="M82.0256 117.012C82.0256 117.012 83.4488 130.284 87.647 136.582C84.0926 131.661 82.0692 125.8 81.83 119.734L82.0256 117.012Z" fill="#E28183"/>
<path d="M75.0701 124.538C75.0701 124.538 76.4576 135.212 83.0218 141.154C83.0218 141.154 77.2048 138.255 75.0701 128.256V124.538Z" fill="#E28183"/>
<path style="mix-blend-mode:multiply" opacity="0.91" d="M108.603 152.648C108.603 152.648 94.1578 166.685 84.9253 165.101L85.5479 176.132C90.2085 175.493 94.5853 173.521 98.1516 170.453C101.718 167.385 104.322 163.352 105.65 158.839C106.464 156.698 107.451 154.627 108.603 152.648Z" fill="url(#paint17_linear_11_526)"/>
<path d="M414.095 171.737C414.095 171.737 400.824 195.987 385.277 203.459H379.94L367.683 222.033C367.683 222.033 359.749 217.051 359.162 200.683C360.825 198.94 362.045 196.823 362.72 194.51C360.545 192.847 358.664 190.833 357.152 188.55C355.978 186.024 355.551 178.445 354.715 175.331C353.879 172.218 346.71 165.724 345.109 164.87C343.508 164.016 336.214 163.607 336.214 163.607C336.214 163.607 335.2 160.992 336.214 159.746C337.228 158.501 348.507 154.089 354.662 158.305C354.877 159.965 355.24 161.602 355.747 163.198C356.423 164.87 361.813 170.848 362.667 170.848C363.521 170.848 367.132 167.823 368.733 165.51C373.125 157.162 377.015 148.56 380.385 139.749V139.571C380.392 139.482 380.392 139.393 380.385 139.304V139.126C381.915 133.985 390.756 124.128 395.47 121.335C395.47 121.335 397.48 120.837 398.583 123.363C396.562 129.296 394.038 135.046 391.04 140.55C390.382 141.635 389.653 142.898 388.906 144.268C385.544 150.459 381.79 158.59 381.185 159.782V159.924L383.284 161.009L388.977 155.672L394.829 150.139L408.225 164.372L406.908 166.151L402.71 171.488L404.845 171.88L409.772 166.418L414.095 171.737Z" fill="url(#paint18_linear_11_526)"/>
<path style="mix-blend-mode:multiply" opacity="0.6" d="M410.929 176.897L406.695 183.124C406.695 183.124 383.409 165.172 378.357 163.553C373.305 161.934 371.454 163.055 371.454 163.055L366.242 169.709C366.242 169.709 375.831 178.213 376.684 189.671C376.684 189.671 373.482 175.189 362.613 170.794C363.449 170.794 367.078 167.77 368.679 165.457C373.071 157.109 376.962 148.506 380.331 139.696C379.903 141.22 380.029 142.846 380.687 144.286C381.843 146.403 388.585 144.392 388.977 144.286L381.238 159.8V159.942L383.338 161.027L389.03 155.69L386.024 162.255L406.801 165.92L402.603 171.257L404.738 171.648L410.929 176.897Z" fill="url(#paint19_linear_11_526)"/>
<path d="M394.758 150.086C394.758 150.086 398.796 149.499 401.411 154.711L400.824 156.49C400.824 156.49 404.756 157.273 408.563 163.607C405.82 167.849 401.678 170.996 396.857 172.502C396.857 172.502 392.979 171.399 392.303 168.108L393.068 166.009L390.044 168.286C390.044 168.286 386.486 169.371 384.814 163.98L394.758 150.086Z" fill="url(#paint20_linear_11_526)"/>
<path d="M415.305 170.047C415.489 168.772 415.272 167.471 414.686 166.324C414.1 165.177 413.172 164.24 412.031 163.642L404.026 172.538C404.17 173.444 404.612 174.275 405.282 174.901C405.953 175.526 406.813 175.909 407.727 175.989C407.727 175.989 413.206 174.104 415.305 170.047Z" fill="url(#paint21_linear_11_526)"/>
<path style="mix-blend-mode:multiply" opacity="0.91" d="M357.099 188.586C363.466 195.253 371.299 200.345 379.975 203.459L374.105 212.354L361.884 196.823L362.667 194.563C362.667 194.563 357.775 190.881 357.099 188.586Z" fill="url(#paint22_linear_11_526)"/>
<path d="M400.824 156.401C398.68 159.936 396.071 163.167 393.068 166.009L392.303 168.108C392.303 168.108 399.828 163.037 402.603 157.166C402.067 156.795 401.462 156.535 400.824 156.401Z" fill="#E28183"/>
<path style="mix-blend-mode:multiply" opacity="0.5" d="M372.842 224.808C371.668 226.587 365.726 230.537 364.268 232.067C362.809 233.597 364.268 238.561 364.268 238.561C348.895 254.982 330.918 268.754 311.06 279.32L310.847 279.427C308.837 279.676 298.964 276.9 289.109 257.188C280.214 239.397 277.617 227.406 277.208 225.324V225.004L279.289 222.033L282.509 185.65L284.786 192.962C293.378 182.608 301.472 166.685 301.472 166.685L301.828 167.841C303.287 173.552 306.275 194.937 309.05 202.569C310.221 206.102 312.49 209.169 315.526 211.323C307.627 218.546 303.696 228.918 301.757 237.173C300.713 241.564 300.082 246.043 299.871 250.552C301.862 242.637 304.921 235.03 308.961 227.939C311.578 223.509 314.88 219.522 318.745 216.126C321.161 213.937 323.71 211.899 326.377 210.024C328.263 211.198 329.935 213.048 331.411 212.265C321.005 227.886 321.271 258.807 331.038 252.918C340.804 247.029 343.045 234.504 343.045 234.504C340.733 219.257 341.426 202.071 343.277 198.798C345.518 198.798 351.975 203.405 352.349 203.299C351.922 213.83 354.647 224.25 360.176 233.223L365.744 224.612C360.899 216.459 358.314 207.161 358.255 197.677C358.575 197.534 360.55 198.976 360.55 198.976L359.162 200.755C360.517 208.139 363.629 215.09 368.235 221.019L372.86 214.24C372.86 214.24 374.034 222.958 372.842 224.808Z" fill="url(#paint23_linear_11_526)"/>
<path style="mix-blend-mode:multiply" opacity="0.5" d="M265.609 337.034V342.372L265.52 342.478L265.218 342.745L264.987 342.941C262.585 344.827 252.41 351.036 220.514 352.744C182.836 354.754 157.736 342.639 157.736 342.639L159.639 337.444C159.639 337.444 157.861 335.931 157.736 335.166C157.612 334.401 159.124 332.64 159.124 332.64C159.124 332.64 155.335 330.63 155.335 328.085C155.335 325.808 161.525 319.19 162.45 312.999C162.574 312.348 162.628 311.686 162.61 311.024C162.343 304.352 156.598 298.445 155.797 294.656C155.032 290.866 165.652 281.526 165.652 281.526C156.562 252.705 154.783 214.045 154.783 214.045L153.004 212.016C153.004 212.016 142.313 236.621 132.44 248.826C122.567 261.031 108.176 271.314 105.65 270.816C99.8325 270.816 93.3394 260.711 87.4512 248.239C81.5631 235.767 81.1895 199.936 80.8871 197.712C80.5847 195.488 77.3292 191.076 77.0802 189.173C83.4131 200.043 93.4818 196.841 93.4818 196.841C86.1704 197.001 82.3991 183.355 82.3991 183.355V183.266L78.8413 173.854C79.2327 174.317 87.5758 183.64 95.6342 177.893C103.693 172.147 108.087 160.582 108.087 160.582V175.242C108.087 175.242 108.585 177.519 109.35 177.519C108.636 185.301 107.412 193.027 105.685 200.648C101.932 218.172 96.7905 235.074 96.7905 235.074C96.7905 235.074 110.719 227.495 115.611 208.387C117.538 200.878 118.376 193.131 118.102 185.383C118.003 182.155 117.628 178.941 116.981 175.776C116.991 175.681 116.991 175.586 116.981 175.491C116.981 175.491 116.981 175.491 116.981 175.349L118.333 178.196L120.895 184.547C123.866 209.188 117.728 246.353 117.728 246.353C126.623 235.216 128.526 210.629 128.135 204.651C127.957 201.786 127.726 198.264 127.583 195.382C127.441 192.5 127.245 189.849 127.245 189.849L145.533 200.772L142.171 190.098L155.477 200.772C155.477 200.772 167.431 215.165 179.741 216.784C192.051 218.403 237.182 217.46 237.182 217.46C237.182 217.46 197.922 219.987 186.465 223.367C175.009 226.747 172.821 230.608 172.821 230.608C181.111 272.737 226.953 286.952 228.377 287.379C186.661 280.903 167.307 245.517 167.307 245.517C167.307 245.517 166.631 265.407 169.833 272.986C173.035 280.565 191.909 299.104 216.173 302.964C218.17 303.283 220.184 303.49 222.204 303.587C242.679 304.548 259.561 294.087 261.34 292.912L261.5 292.823C260.86 293.82 252.463 305.615 218.593 306.896C216.529 306.896 214.537 306.896 212.58 306.896C181.182 305.562 165.19 284.657 165.19 284.657C165.19 284.657 153.573 290.902 160.974 300.153L161.223 300.438C163.411 302.964 168.232 306.042 173.924 309.227L174.333 309.565C181.218 313.354 189.294 317.286 195.52 320.524H195.627C198.626 322.005 201.531 323.669 204.326 325.506C206.105 326.787 206.443 327.605 204.735 327.819C195.965 328.815 162.788 321.574 161.436 323.602C160.084 325.63 163.073 330.843 163.073 330.843C193.546 345.93 258.725 338.493 260.771 338.262C206.229 352.228 161.596 334.544 161.596 334.544L163.073 339.774C180.216 345.231 198.032 348.29 216.013 348.865C244.671 349.541 262.532 342.212 262.532 342.212L265.609 337.034Z" fill="url(#paint24_linear_11_526)"/>
<path style="mix-blend-mode:multiply" opacity="0.5" d="M243.302 217.051C243.302 217.051 264.987 218.225 279.325 222.015L271.942 233.241C263.368 226.28 253.687 220.807 243.302 217.051Z" fill="url(#paint25_linear_11_526)"/>
<path style="mix-blend-mode:multiply" opacity="0.5" d="M263.564 276.883C263.564 276.883 250.026 288.162 236.72 293.393C228.351 296.598 219.548 298.529 210.605 299.122C210.605 299.122 218.255 301.399 237.093 298.357C255.932 295.314 262.354 285.138 262.354 285.138L263.564 276.883Z" fill="url(#paint26_linear_11_526)"/>
<path style="mix-blend-mode:multiply" opacity="0.5" d="M269.647 320.364C244.6 326.84 212.722 317.553 213.06 316.414C213.398 315.276 221.777 316.93 241.345 312.999C260.326 309.209 267.21 302.448 267.62 302.039C267.459 303.178 264.844 305.704 264.062 308.462C263.599 310.294 267.139 316.059 269.647 320.364Z" fill="url(#paint27_linear_11_526)"/>
<path style="mix-blend-mode:multiply" opacity="0.5" d="M201.604 220.467C180.257 222.638 174.458 228.598 174.458 228.598C168.427 229.363 154.89 213.956 154.89 213.956L153.111 211.927C153.111 211.927 142.313 236.621 132.44 248.826C131.266 250.267 130.021 251.691 128.74 253.06L130.145 249.911C130.145 249.911 132.44 248.826 133.098 236.782C133.756 224.737 128.082 206.786 128.082 204.348C128.082 201.911 127.192 189.546 127.192 189.546L145.479 200.47L142.117 189.795L155.423 200.47C155.423 200.47 160.636 208.316 173.8 214.845C182.513 218.829 192.027 220.753 201.604 220.467Z" fill="url(#paint28_linear_11_526)"/>
<path style="mix-blend-mode:multiply" opacity="0.5" d="M153.164 211.927L165.901 210.255C170.778 213.221 175.91 215.745 181.236 217.798L172.697 230.377C172.697 230.377 176.077 248.292 185.79 258.398C185.79 258.398 160.031 244.076 156.402 232.049L153.164 211.927Z" fill="url(#paint29_linear_11_526)"/>
<path style="mix-blend-mode:multiply" opacity="0.5" d="M78.7524 173.766L82.3103 183.355C82.3103 183.355 86.0104 196.307 93.3929 196.841C100.775 197.374 107.962 175.153 107.962 175.153V160.493C107.962 160.493 100.117 177.306 91.6495 179.192C83.1819 181.078 78.7524 173.766 78.7524 173.766Z" fill="url(#paint30_linear_11_526)"/>
<path style="mix-blend-mode:multiply" opacity="0.5" d="M122.834 166.187C122.834 166.187 129.398 179.316 137.492 183.355C137.492 183.355 127.868 160.031 129.896 146.296C129.861 146.296 126.303 148.502 122.834 166.187Z" fill="url(#paint31_linear_11_526)"/>
<path style="mix-blend-mode:multiply" opacity="0.76" d="M282.544 185.65L284.822 192.962L287.116 253.06C282.884 244.168 279.564 234.869 277.208 225.306L279.289 222.033C279.289 222.033 282.847 199.385 282.544 185.65Z" fill="url(#paint32_linear_11_526)"/>
<path style="mix-blend-mode:multiply" opacity="0.5" d="M352.384 203.334C352.384 203.334 351.086 232.85 363.645 235.358L364.268 238.507C364.268 238.507 348.026 237.956 352.384 203.334Z" fill="url(#paint33_linear_11_526)"/>
<path style="mix-blend-mode:multiply" opacity="0.3" d="M331.447 212.301C331.447 212.301 330.966 213.368 326.412 210.059C326.412 210.059 310.633 221.232 304.55 236.995C304.55 236.995 314.28 222.513 319.457 220.983C324.633 219.453 325.879 225.2 325.879 225.2C327.031 220.629 328.911 216.274 331.447 212.301Z" fill="url(#paint34_linear_11_526)"/>
<path style="mix-blend-mode:multiply" opacity="0.5" d="M77.0803 189.173C77.0803 189.173 83.1464 200.363 94.5314 196.858C94.5314 196.858 87.7182 201.448 80.8872 197.712C80.8872 197.712 76.6534 190.365 77.0803 189.173Z" fill="url(#paint35_linear_11_526)"/>
<path style="mix-blend-mode:multiply" opacity="0.5" d="M116.839 175.011C116.839 175.011 125.182 206.216 103.408 229.665C107.836 227.108 111.672 223.643 114.664 219.498C117.657 215.352 119.738 210.619 120.77 205.612C122.611 195.249 121.239 184.571 116.839 175.011Z" fill="url(#paint36_linear_11_526)"/>
<path style="mix-blend-mode:multiply" opacity="0.5" d="M266.41 150.068C266.41 150.068 265.467 164.158 258.725 174.264C251.983 184.369 238.57 191.201 238.57 191.201C238.57 191.201 255.381 185.01 263.083 176.292C270.786 167.574 266.41 150.068 266.41 150.068Z" fill="url(#paint37_linear_11_526)"/>
<path style="mix-blend-mode:multiply" opacity="0.5" d="M180.453 128.861C180.634 136.925 181.909 144.927 184.242 152.648C188.031 164.657 220.941 185.632 220.941 185.632C220.941 185.632 187.017 171.542 180.453 158.946C173.889 146.349 180.453 128.861 180.453 128.861Z" fill="url(#paint38_linear_11_526)"/>
<path style="mix-blend-mode:multiply" opacity="0.5" d="M249.937 131.423C248.905 143.877 245.134 152.47 241.042 158.305C238.13 162.774 234.158 166.453 229.48 169.015C223.856 166.571 218.58 163.395 213.79 159.568C201.728 149.663 192.824 136.448 188.173 121.549C194.16 136.539 204.139 149.602 217.027 159.319C220.851 162.289 225.035 164.764 229.48 166.685V160.493C228.056 159.96 226.669 159.337 225.335 158.714C209.609 150.762 201.337 134.234 197.459 123.523C196.268 120.307 195.293 117.014 194.542 113.667H197.459L196.516 115.642C196.979 117.67 197.495 119.609 198.082 121.46C198.074 121.513 198.074 121.567 198.082 121.62C206.905 149.445 229.48 158.341 229.48 158.341C245.223 146.723 244.903 128.274 244.903 128.274V125.73L247.856 126.619L249.937 131.423Z" fill="url(#paint39_linear_11_526)"/>
<path style="mix-blend-mode:multiply" opacity="0.3" d="M343.33 198.833C343.33 198.833 339.043 212.799 343.099 234.54C343.099 234.54 345.109 206.999 346.656 204.597C348.204 202.196 352.42 203.334 352.42 203.334C349.467 201.683 346.433 200.181 343.33 198.833Z" fill="url(#paint40_linear_11_526)"/>
<path style="mix-blend-mode:multiply" opacity="0.5" d="M301.792 274.837C296.476 269.811 292.171 263.815 289.109 257.17C280.214 239.379 277.617 227.388 277.208 225.306L279.289 222.033L282.135 194.546L284.786 192.962C291.542 185.021 297.158 176.177 301.472 166.685C301.623 167.059 301.742 167.446 301.828 167.841C303.287 173.552 306.275 194.937 309.05 202.569C310.221 206.102 312.49 209.169 315.526 211.323C315.526 211.323 299.106 235.679 298.306 253.06C297.63 268.877 301.152 273.983 301.792 274.837Z" fill="url(#paint41_linear_11_526)"/>
<path style="mix-blend-mode:multiply" opacity="0.5" d="M204.308 325.577C204.308 325.577 174.725 320.72 162.628 312.927C162.752 312.277 162.806 311.615 162.788 310.953C162.521 304.281 156.775 298.374 155.975 294.585C156.099 294.958 156.971 296.951 161.169 300.545C165.136 303.843 169.386 306.784 173.871 309.334L174.333 309.565C182.872 314.6 190.219 318.016 195.52 320.524H195.627C200.394 322.766 203.49 324.26 204.326 325.506L204.308 325.577Z" fill="url(#paint42_linear_11_526)"/>
<path style="mix-blend-mode:multiply" opacity="0.5" d="M267.619 302.057C267.459 303.196 264.844 305.722 264.062 308.48C264.062 308.48 253.192 319.973 213.007 316.432C213.274 315.294 221.724 316.948 241.292 313.016C260.326 309.227 267.21 302.448 267.619 302.057Z" fill="url(#paint43_linear_11_526)"/>
<g style="mix-blend-mode:multiply" opacity="0.5">
<path d="M274.308 146.474L248.621 154.782L241.096 158.341H229.48L225.335 158.679L223.147 158.839L216.92 159.319L213.79 159.586L183.05 148.431L177.535 146.438L152.204 137.258L154.516 136.351C171.523 129.626 188.209 121.442 188.209 121.442L194.595 113.578H197.459C199.643 108.763 201.428 103.777 202.796 98.6693L204.575 91.0548C204.699 90.3253 204.753 89.9161 204.753 89.9161L213.825 94.7019L244.316 119.2C244.28 120.678 244.321 122.157 244.44 123.63L244.867 126.726C244.867 126.121 244.974 125.765 244.974 125.765L247.927 126.655L249.937 131.458C249.937 131.458 253.353 136.796 266.872 142.72C269.418 143.834 271.9 145.087 274.308 146.474Z" fill="#7A4AC0"/>
</g>
<path d="M254.74 123.043C246.138 124.465 237.307 123.165 229.48 119.325C216.262 112.938 205.144 94.0615 204.468 89.3468C203.792 84.6322 209.52 72.3208 209.52 62.6602C209.52 52.9996 204.806 36.5429 212.722 27.6118C220.638 18.6806 257.035 17.3463 268.829 28.8038C268.829 28.8038 272.494 37.984 272.494 43.1612C272.427 44.91 272.237 46.652 271.924 48.374C271.818 49.1746 271.675 50.0107 271.551 50.8825C270.483 57.1628 269.043 64.8307 269.772 68.1932C270.001 69.3196 270.353 70.4174 270.821 71.4668C272.28 74.8293 274.379 77.5158 274.824 80.3623C275.358 84.2942 270.252 111.248 254.74 123.043Z" fill="url(#paint44_linear_11_526)"/>
<path d="M209.502 60.0093C209.502 60.0093 206.229 51.8076 198.011 51.6831C198.011 51.6831 193.208 53.5868 192.46 57.2517C193.301 63.8088 194.567 70.3044 196.25 76.6974C198.26 82.8887 205.678 82.0347 205.678 82.0347C209.608 75.4095 210.969 67.5718 209.502 60.0093Z" fill="url(#paint45_linear_11_526)"/>
<path d="M241.06 87.034C242.4 86.901 243.751 87.1282 244.974 87.6923C246.166 88.5818 250.453 92.7627 255.879 93.8836C261.304 95.0044 264.969 90.3253 266.125 90.1652C267.281 90.0051 268.545 91.5707 268.545 91.5707C268.263 90.8707 267.811 90.2519 267.231 89.7704C266.65 89.2888 265.958 88.9598 265.218 88.8131C265.218 88.8131 264.079 93.1719 256.199 91.6775C248.318 90.183 244.974 86.696 244.974 86.696L244.583 85.9665C243.379 86.2161 242.2 86.5733 241.06 87.034Z" fill="url(#paint46_linear_11_526)"/>
<path style="mix-blend-mode:multiply" opacity="0.6" d="M229.48 46.2568L229.586 45.4206C229.586 45.4206 237.431 31.6326 252.979 31.1878C268.527 30.743 271.996 40.5637 271.996 40.5637L274.877 36.2049L268.313 22.8615L222.649 22.1143L211.53 31.0099L210.125 52.9819L215.07 81.9813L227.096 88.3861L230.494 85.3972C229.248 75.6833 222.026 66.8055 222.026 66.8055L227.363 63.2473C227.363 63.2473 240.882 69.7944 248.71 67.8374C248.71 67.8374 254.58 50.6868 254.242 37.9662C254.153 37.9306 234.14 40.9195 229.48 46.2568Z" fill="url(#paint47_linear_11_526)"/>
<path d="M228.75 47.2353C228.75 47.2353 229.497 42.2716 237.894 40.279C247.215 38.0729 254.811 36.2049 254.811 36.2049C254.811 36.2049 253.157 41.6489 250.044 43.6949C245.074 43.489 240.095 43.7451 235.172 44.4599C230.156 45.5986 228.75 47.2353 228.75 47.2353Z" fill="#38368E"/>
<path d="M271.996 40.5637C268.312 43.9565 265.572 48.2477 264.044 53.0174C264.044 53.0174 267.139 48.9788 269.968 49.0322C270.215 49.0234 270.462 49.0715 270.688 49.1729C270.914 49.2743 271.113 49.4263 271.272 49.617C271.43 49.8078 271.542 50.0324 271.6 50.2733C271.657 50.5143 271.659 50.7653 271.604 51.007C272.75 47.6385 272.886 44.0085 271.996 40.5637Z" fill="#38368E"/>
<path d="M231.881 61.2903C231.881 61.2903 232.379 50.7935 242.555 48.1427C244.751 51.1057 246.142 54.5873 246.593 58.248C246.593 58.248 241.22 57.2517 231.881 61.2903Z" fill="url(#paint48_linear_11_526)"/>
<path d="M261.198 65.4534C261.198 65.4534 262.016 57.1094 266.819 54.0137C266.819 54.0137 270.092 56.4689 269.754 63.4608C269.754 63.4608 266.837 62.4289 261.198 65.4534Z" fill="url(#paint49_linear_11_526)"/>
<path d="M231.881 61.2903C231.881 61.2903 235.208 65.3644 244.511 66.165C245.799 63.717 246.355 60.95 246.112 58.1946C246.112 58.1946 237.556 57.3762 231.881 61.2903Z" fill="#FFEBED"/>
<path d="M261.198 65.4534V66.681C261.198 66.681 262.621 69.6699 267.762 70.2392C268.903 68.167 269.514 65.8444 269.541 63.4786C269.541 63.4786 266.285 62.5891 261.198 65.4534Z" fill="#FFEBED"/>
<path d="M241.825 57.9811C240.288 60.1252 239.528 62.73 239.673 65.3644C241.265 65.7447 242.882 66.0122 244.511 66.165C245.922 63.7622 246.485 60.9558 246.112 58.1946C244.706 57.8804 243.256 57.8082 241.825 57.9811Z" fill="#7F9EC9"/>
<path d="M266.072 63.5498C266.072 63.5498 264.738 64.9908 264.471 69.3675C265.515 69.8183 266.627 70.0889 267.762 70.168C269.001 68.1362 269.619 65.7862 269.541 63.4074C268.396 63.104 267.187 63.1536 266.072 63.5498Z" fill="#7F9EC9"/>
<path d="M241.06 65.6847C241.06 65.6847 240.224 60.0271 243.462 57.8566L246.112 58.1947C246.581 60.958 246.011 63.7971 244.511 66.1651C244.511 66.1651 241.932 65.827 241.06 65.6847Z" fill="#38368E"/>
<path d="M267.246 63.3007C266.356 65.3543 265.758 67.522 265.467 69.741C266.199 70.0015 266.967 70.1456 267.744 70.168C269.049 68.1649 269.673 65.7937 269.523 63.4074C268.78 63.2082 268.004 63.1718 267.246 63.3007Z" fill="#38368E"/>
<path d="M231.881 61.2903C231.881 61.2903 238.072 57.7321 248.621 59.7425L246.664 58.248C244.128 57.6303 241.487 57.5828 238.931 58.1089C236.375 58.6349 233.967 59.7215 231.881 61.2903Z" fill="#131163"/>
<path d="M261.198 65.4534C264.522 63.8764 268.273 63.4388 271.871 64.208L269.487 62.4289C266.435 62.3131 263.458 63.399 261.198 65.4534Z" fill="#131163"/>
<path d="M238.57 61.2903C239.157 61.2096 239.756 61.2726 240.313 61.4741C240.871 61.6755 241.372 62.0093 241.772 62.4467C241.184 62.6162 240.558 62.5957 239.983 62.388C239.408 62.1803 238.913 61.7961 238.57 61.2903Z" fill="white"/>
<path d="M263.475 66.1651C263.475 66.1651 266.107 65.6669 267.032 66.8589C267.015 66.8589 265.609 67.8374 263.475 66.1651Z" fill="white"/>
<path d="M232.504 61.8952C235.994 65.0299 240.32 67.082 244.956 67.8018L245.152 64.9908L244.44 66.1651C244.44 66.1651 237.111 65.827 232.504 61.8952Z" fill="#C6659C"/>
<path d="M261.198 66.681C261.198 66.681 262.051 69.7589 268.313 71.1466L268.117 69.6343L267.762 70.1681C265.227 69.8298 262.897 68.5924 261.198 66.681Z" fill="#C6659C"/>
<path d="M248.621 78.9746C250.82 78.6488 253.056 78.6488 255.256 78.9746C259.543 79.4906 264.382 80.7537 267.015 78.9746C267.015 78.9746 263.457 82.5328 260.486 83.031C257.515 83.5291 252.819 80.8961 252.819 80.8961H250.791C249.907 80.4643 249.156 79.8001 248.621 78.9746Z" fill="#CB5F7D"/>
<path d="M251.093 80.9139C251.663 80.545 252.337 80.3703 253.015 80.4157C253.904 80.5758 254.794 81.8746 254.794 81.8746C253.644 81.2899 252.382 80.9621 251.093 80.9139Z" fill="#9F4A8B"/>
<path d="M267.015 78.9746C268.135 77.8894 262.336 67.535 259.543 67.1435C256.75 66.7521 254.206 78.7611 254.206 78.7611L261.838 79.793C265.52 80.3089 267.015 78.9746 267.015 78.9746Z" fill="#FFBCAF"/>
<path style="mix-blend-mode:multiply" opacity="0.6" d="M271.177 46.3814C269.594 46.1857 264.062 52.9463 264.062 52.9463C264.062 52.9463 260.504 63.8878 261.215 67.1791C261.927 70.4705 270.501 72.1429 270.501 72.1429L270.857 71.5735C270.388 70.5242 270.036 69.4264 269.808 68.3C269.132 64.9375 270.573 57.2695 271.586 50.9893C271.792 50.1671 271.917 49.327 271.96 48.4807C272.049 47.4132 271.889 46.4525 271.177 46.3814Z" fill="url(#paint50_linear_11_526)"/>
<path d="M270.928 90.8591C269.149 87.1407 270.234 85.2193 254.829 83.1911C233.037 80.3268 231.258 86.9806 227.452 85.9665L227.007 85.8064C223.004 84.2586 213.541 74.9538 213.309 62.4289C213.387 54.2374 216.39 46.3434 221.777 40.1723C218.61 37.5214 217.347 29.8179 220.763 26.5265C224.178 23.2352 229.995 24.018 244.262 25.5124C258.529 27.0069 258.494 26.1529 258.494 26.1529C261.902 27.2931 264.726 29.7276 266.356 32.9313C266.499 33.1982 266.57 33.3583 266.57 33.3583L268.349 31.7215C271.234 35.9897 272.611 41.099 272.262 46.239C272.262 46.239 280.09 30.316 279.2 28.0743C277.44 24.3006 275.287 20.7227 272.778 17.3997C272.778 17.3997 271.551 5.33733 267.762 5.33733C263.973 5.33733 247.802 8.89554 247.802 8.89554C248.885 6.0584 249.399 3.03571 249.314 0C243.978 4.73243 238.872 5.33733 231.525 8.64647C228.892 9.74429 226.552 11.4444 224.694 13.6102L224.143 14.2329L223.627 14.8556C223.111 15.496 222.595 16.1365 221.973 16.8126H221.884C221.223 17.518 220.516 18.1778 219.767 18.7874C214.964 22.7014 204.397 25.3167 203.134 29.462C201.871 33.6074 204.735 39.2293 206.247 45.047C207.157 48.6244 207.434 52.3335 207.065 56.0063C210.257 60.69 211.465 66.4464 210.427 72.0183C208.951 80.5225 205.696 81.9102 205.696 81.9102C204.336 84.7222 203.918 87.8976 204.504 90.9658C209.164 109.54 228.483 120.588 228.483 120.588C245.668 126.993 256.946 124.146 256.946 124.146C269.398 115.998 273.721 89.0266 273.899 87.7634C273.703 88.2438 271.391 91.8376 270.928 90.8591ZM263.279 108.045C260.255 107.547 259.614 99.8792 258.618 98.8651C257.622 97.851 252.125 98.278 252.125 98.278C252.125 98.278 247.073 104.007 245.009 104.167C242.946 104.327 232.219 99.9503 234.549 93.3854C236.88 86.8205 245.009 85.9665 245.009 85.9665C248.062 88.2781 251.721 89.6505 255.541 89.9162C261.856 90.3253 264.151 89.1689 264.88 88.8487C265.609 88.5284 269.719 90.3431 269.612 96.0897C269.505 100.075 266.25 108.526 263.279 108.045Z" fill="url(#paint51_linear_11_526)"/>
<path d="M262.425 69.3853C262.425 69.3853 267.868 76.1459 267.353 78.69C266.837 81.2341 260.486 82.9599 260.486 82.9599C260.486 82.9599 265.538 81.1807 266.57 78.69C265.67 75.3954 264.272 72.2577 262.425 69.3853Z" fill="#D2726C"/>
<path style="mix-blend-mode:multiply" opacity="0.6" d="M272.316 46.2568C272.664 41.1168 271.287 36.0075 268.402 31.7393C270.782 27.326 272.28 22.492 272.814 17.5064C273.805 20.5864 274.491 23.7567 274.86 26.9713L279.236 28.1277C280.143 30.2449 272.316 46.2568 272.316 46.2568Z" fill="url(#paint52_linear_11_526)"/>
<path style="mix-blend-mode:multiply" opacity="0.6" d="M266.41 32.9313C264.78 29.7276 261.956 27.2931 258.547 26.1529C258.547 26.1529 258.547 27.0425 244.316 25.5124C230.084 23.9824 224.232 23.2529 220.816 26.5265C217.401 29.8001 218.664 37.5214 221.83 40.1723C216.443 46.3434 213.44 54.2374 213.363 62.4289C213.594 74.8827 223.058 84.2586 227.06 85.8064L226.882 87.1941C226.882 87.1941 227.594 115.873 234.567 118.168C241.541 120.463 255.914 119.254 257.337 120.606C258.76 121.958 257.142 124.075 257.017 124.289C257.017 124.289 245.721 127.082 228.555 120.73C228.555 120.73 209.236 109.682 204.575 91.1082C203.989 88.0399 204.407 84.8645 205.767 82.0525C205.767 82.0525 209.022 80.6648 210.499 72.1606C211.536 66.5887 210.328 60.8324 207.136 56.1487C207.505 52.4758 207.228 48.7667 206.318 45.1894C204.806 39.3717 201.942 33.7319 203.205 29.6044C207.851 30.3951 212.622 29.3489 216.511 26.6866C216.511 26.6866 217.917 24.7296 224.178 23.7155C230.44 22.7014 255.576 25.2278 255.576 25.2278C253.232 23.5294 250.57 22.3194 247.749 21.6695C242.732 20.353 225.602 21.883 223.751 22.0432C225.726 21.6873 245.098 18.3604 247.358 19.0187C249.617 19.6769 258.031 23.5732 258.031 23.5732C257.266 19.7125 249.741 10.4256 249.741 10.4256C243.856 10.5388 237.987 11.0918 232.184 12.0801C228.416 12.7519 224.883 14.3747 221.919 16.7948L223.574 14.8378L224.143 14.2329L224.641 13.6458L227.06 13.2188L239.246 8.30844C242.913 5.96915 246.272 3.17776 249.243 0C249.328 3.03571 248.814 6.0584 247.731 8.89554C258.013 7.63238 261.5 8.27286 261.5 8.27286C266.25 14.9623 266.41 32.9313 266.41 32.9313Z" fill="url(#paint53_linear_11_526)"/>
<path style="mix-blend-mode:multiply" opacity="0.5" d="M228.466 120.677C233.677 119.655 238.995 119.285 244.298 119.574C253.833 119.947 259.312 119.983 256.946 124.289C256.946 124.289 244.974 126.993 228.466 120.677Z" fill="url(#paint54_linear_11_526)"/>
<path d="M261.5 8.34403C261.5 8.34403 267.299 6.08456 269.576 6.44038C269.116 5.81148 268.504 5.30954 267.797 4.98151C266.837 4.73244 247.802 8.89555 247.802 8.89555C247.802 8.89555 259.721 7.57901 261.5 8.34403Z" fill="url(#paint55_linear_11_526)"/>
<path d="M249.813 10.4789C249.813 10.4789 249.368 16.7948 247.358 19.072L223.752 22.0965L216.832 20.8689C219.011 19.757 220.928 18.192 222.453 16.2788C225.406 12.8452 240.793 9.46485 249.813 10.4789Z" fill="url(#paint56_linear_11_526)"/>
<path d="M272.814 17.4353C273.79 20.5263 274.481 23.7005 274.877 26.9179L279.253 28.0743C277.841 24.1324 275.651 20.5145 272.814 17.4353Z" fill="url(#paint57_linear_11_526)"/>
<path style="mix-blend-mode:multiply" opacity="0.8" d="M208.524 71.1643C208.524 71.1643 206.87 63.1939 202.796 59.2621C201.681 58.1302 200.302 57.2937 198.784 56.8278C197.265 56.3619 195.655 56.2813 194.097 56.5934C194.097 56.5934 195.36 71.36 196.694 74.9538C197.212 76.831 198.403 78.4521 200.039 79.5084C198.099 77.5237 196.953 74.8971 196.819 72.1251C196.427 67.2503 196.303 60.3474 197.388 59.529C198.473 58.7106 202.725 61.913 202.725 61.913C201.554 63.7347 200.807 65.7956 200.537 67.9442C199.718 72.303 202.743 75.452 203.881 75.3986C205.02 75.3452 203.881 70.3637 204.006 68.9227C204.13 67.4816 206.798 67.8018 208.524 71.1643Z" fill="url(#paint58_linear_11_526)"/>
<path style="mix-blend-mode:multiply" opacity="0.8" d="M204.468 61.2547C203.098 62.2716 202.014 63.6243 201.319 65.1825C200.624 66.7406 200.342 68.4516 200.501 70.1502C200.981 76.128 204.397 75.879 204.415 74.6158C204.131 72.5233 204.03 70.41 204.112 68.3C204.45 66.5209 207.403 67.3037 207.403 67.3037C206.579 65.216 205.598 63.1939 204.468 61.2547Z" fill="url(#paint59_linear_11_526)"/>
<path d="M273.952 87.9058C273.952 87.9058 268.438 113.08 256.982 124.289C256.946 124.289 270.021 119.2 273.952 87.9058Z" fill="#34C7FF"/>
<path d="M267.797 4.98151C267.797 4.98151 270.715 7.25876 271.355 15.1224C271.456 20.7866 270.485 26.4188 268.491 31.7215C271.134 27.5898 272.778 22.8997 273.294 18.0224C273.614 10.8704 270.11 5.88885 267.797 4.98151Z" fill="#34C7FF"/>
<path d="M232.539 21.4561C237.128 22.9442 241.863 23.9343 246.664 24.4094L255.558 25.21C252.895 23.0685 249.658 21.7624 246.255 21.4561C241.696 20.9729 237.098 20.9729 232.539 21.4561Z" fill="url(#paint60_linear_11_526)"/>
<path d="M265.058 88.4573C266.148 88.5551 267.177 89.0031 267.991 89.7342C268.806 90.4653 269.362 91.4404 269.576 92.5137C270.189 94.4749 270.624 96.4876 270.875 98.527L272.013 94.0971C272.013 94.0971 270.519 88.4751 268.971 87.2119C267.888 86.2411 266.509 85.6644 265.058 85.5751V88.4573Z" fill="url(#paint61_linear_11_526)"/>
<path d="M256.395 84.4187L256.946 89.2223C259.151 89.3854 261.367 89.1257 263.475 88.4573L263.937 85.5573C261.469 84.9159 258.942 84.5343 256.395 84.4187Z" fill="url(#paint62_linear_11_526)"/>
<path d="M274.308 146.474C274.308 146.474 297.292 163.269 300.262 169.015C303.233 174.762 304.461 192.909 308.499 200.737C308.499 200.737 305.741 187.909 303.802 177.875C301.863 167.841 302.326 167.681 301.259 165.208C300.191 162.735 283.025 150.851 274.308 146.474Z" fill="#34C7FF"/>
<path d="M270.199 239.913C270.199 239.913 259.116 287.326 259.614 290.528C260.112 293.731 267.299 300.26 267.619 302.057C267.619 302.057 262.14 309.405 262.407 310.953C262.674 312.5 271.996 322.855 271.746 326.022C271.746 326.947 265.609 336.963 265.609 336.963C265.609 336.963 272.476 327.125 272.725 325.559C272.974 323.993 264.328 310.846 264.079 309.547C263.421 306.096 268.438 303.552 268.598 301.274C268.758 298.997 261.802 293.446 261.749 289.728C261.696 286.01 270.199 239.913 270.199 239.913Z" fill="#34C7FF"/>
<path d="M120.646 135.586C118.796 135.139 117.06 134.309 115.549 133.151C114.039 131.993 112.788 130.532 111.876 128.861C109.314 123.524 110.986 115.642 110.986 115.642C113.188 119.92 115.616 124.077 118.262 128.096C120.664 131.298 121.322 134.928 120.646 135.586Z" fill="#FFBCAF"/>
<path opacity="0.6" d="M314.458 107.334L318.745 229.79C318.828 232.126 319.815 234.339 321.498 235.962C323.18 237.585 325.427 238.491 327.764 238.49H538.69C541.059 238.485 543.332 237.55 545.019 235.887C546.706 234.223 547.672 231.963 547.709 229.594L550.662 105.715C550.688 104.507 550.472 103.306 550.026 102.183C549.58 101.061 548.914 100.039 548.067 99.1779C547.219 98.317 546.208 97.6349 545.092 97.1717C543.977 96.7085 542.78 96.4736 541.572 96.4811L323.424 97.9044C322.209 97.9103 321.007 98.1617 319.892 98.6436C318.776 99.1255 317.77 99.8278 316.932 100.709C316.095 101.589 315.444 102.63 315.019 103.768C314.594 104.907 314.403 106.12 314.458 107.334Z" fill="#36D1F7"/>
<path d="M538.69 238.828H327.764C325.338 238.833 323.004 237.892 321.26 236.205C319.516 234.517 318.499 232.216 318.425 229.79L314.12 107.351C314.075 106.1 314.281 104.853 314.727 103.683C315.172 102.513 315.848 101.444 316.714 100.54C317.579 99.636 318.618 98.9148 319.767 98.4193C320.917 97.9238 322.154 97.664 323.406 97.6553L541.572 96.232C542.825 96.2251 544.067 96.4687 545.225 96.9484C546.382 97.428 547.433 98.1341 548.314 99.0252C549.192 99.9168 549.882 100.977 550.34 102.142C550.799 103.307 551.017 104.552 550.982 105.804L548.029 229.683C547.992 232.131 546.99 234.464 545.241 236.177C543.492 237.889 541.137 238.842 538.69 238.828ZM541.643 96.8903L323.495 98.3313C322.331 98.3361 321.18 98.5748 320.111 99.0332C319.041 99.4917 318.075 100.161 317.269 101C316.463 101.836 315.834 102.826 315.421 103.912C315.008 104.997 314.82 106.155 314.867 107.316L319.154 229.772C319.228 232.023 320.176 234.157 321.797 235.721C323.417 237.286 325.583 238.157 327.836 238.151H538.69C540.952 238.139 543.12 237.249 544.739 235.669C546.359 234.09 547.302 231.944 547.371 229.683L550.324 105.786C550.352 104.628 550.149 103.476 549.725 102.398C549.302 101.32 548.667 100.337 547.858 99.5082C547.049 98.6792 546.082 98.0206 545.015 97.5709C543.948 97.1213 542.801 96.8899 541.643 96.8903Z" fill="#744CA2"/>
<path style="mix-blend-mode:multiply" opacity="0.6" d="M314.867 113.578H550.413L550.787 107.12C550.865 105.764 550.663 104.407 550.195 103.132C549.726 101.857 549.001 100.692 548.063 99.7093C547.126 98.7267 545.996 97.9473 544.745 97.4195C543.494 96.8916 542.147 96.6267 540.789 96.6412L322.712 98.4203C321.635 98.4365 320.572 98.6648 319.583 99.092C318.595 99.5193 317.7 100.137 316.95 100.91C316.2 101.683 315.609 102.597 315.212 103.598C314.815 104.6 314.62 105.669 314.636 106.747L314.867 113.578Z" fill="url(#paint63_linear_11_526)"/>
<path style="mix-blend-mode:multiply" opacity="0.3" d="M326.626 123.452V194.314H398.743V123.079L326.626 123.452Z" fill="url(#paint64_linear_11_526)"/>
<path style="mix-blend-mode:multiply" opacity="0.3" d="M499.821 128.203H468.441V159.586H499.821V128.203Z" fill="url(#paint65_linear_11_526)"/>
<path style="mix-blend-mode:multiply" opacity="0.3" d="M536.84 128.203H505.46V159.586H536.84V128.203Z" fill="url(#paint66_linear_11_526)"/>
<path style="mix-blend-mode:multiply" opacity="0.3" d="M462.197 128.203H430.817V159.586H462.197V128.203Z" fill="url(#paint67_linear_11_526)"/>
<g style="mix-blend-mode:multiply">
<path d="M536.84 177.875H456.611V185.383H536.84V177.875Z" fill="#D1D4FB"/>
</g>
<g style="mix-blend-mode:multiply">
<path d="M536.84 189.315H436.545V191.646H536.84V189.315Z" fill="#D1D4FB"/>
</g>
<g style="mix-blend-mode:multiply">
<path d="M456.682 163.589H437.488V165.92H456.682V163.589Z" fill="#D1D4FB"/>
</g>
<g style="mix-blend-mode:multiply">
<path d="M493.737 163.589H474.542V165.92H493.737V163.589Z" fill="#D1D4FB"/>
</g>
<g style="mix-blend-mode:multiply">
<path d="M530.756 163.589H511.562V165.92H530.756V163.589Z" fill="#D1D4FB"/>
</g>
<g style="mix-blend-mode:multiply">
<path d="M463.086 193.104H430.817V195.435H463.086V193.104Z" fill="#D1D4FB"/>
</g>
<g style="mix-blend-mode:multiply">
<path d="M536.84 196.841H436.545V199.171H536.84V196.841Z" fill="#D1D4FB"/>
</g>
<g style="mix-blend-mode:multiply">
<path d="M536.84 200.577H430.817V202.907H536.84V200.577Z" fill="#D1D4FB"/>
</g>
<g style="mix-blend-mode:multiply">
<path d="M536.84 204.313H430.817V206.643H536.84V204.313Z" fill="#D1D4FB"/>
</g>
<g style="mix-blend-mode:multiply">
<path d="M536.84 219.417H436.545V221.748H536.84V219.417Z" fill="#D1D4FB"/>
</g>
<g style="mix-blend-mode:multiply">
<path d="M536.84 223.154H430.817V225.484H536.84V223.154Z" fill="#D1D4FB"/>
</g>
<g style="mix-blend-mode:multiply">
<path d="M536.84 226.89H430.817V229.22H536.84V226.89Z" fill="#D1D4FB"/>
</g>
<g style="mix-blend-mode:multiply">
<path d="M532.571 208.049H430.817V210.38H532.571V208.049Z" fill="#D1D4FB"/>
</g>
<g style="mix-blend-mode:multiply">
<path d="M536.84 211.785H436.545V214.116H536.84V211.785Z" fill="#D1D4FB"/>
</g>
<g style="mix-blend-mode:multiply">
<path d="M516.72 215.521H430.817V217.852H516.72V215.521Z" fill="#D1D4FB"/>
</g>
<g style="mix-blend-mode:soft-light">
<path d="M346.888 180.099C342.824 180.113 338.847 178.921 335.461 176.673C332.076 174.424 329.434 171.222 327.869 167.47C326.305 163.719 325.89 159.588 326.675 155.6C327.461 151.612 329.412 147.947 332.282 145.07C335.152 142.192 338.811 140.231 342.796 139.435C346.782 138.639 350.913 139.044 354.668 140.599C358.423 142.153 361.632 144.787 363.889 148.167C366.146 151.548 367.349 155.522 367.345 159.586C367.336 165.014 365.179 170.218 361.346 174.062C357.513 177.905 352.315 180.076 346.888 180.099ZM346.888 140.389C343.088 140.375 339.37 141.489 336.205 143.59C333.039 145.691 330.567 148.684 329.104 152.19C327.64 155.697 327.25 159.559 327.982 163.287C328.715 167.016 330.537 170.443 333.219 173.135C335.9 175.827 339.32 177.662 343.046 178.408C346.771 179.155 350.634 178.779 354.145 177.328C357.657 175.877 360.659 173.417 362.771 170.258C364.883 167.1 366.011 163.386 366.011 159.586C366.006 154.509 363.992 149.639 360.409 146.042C356.826 142.445 351.965 140.413 346.888 140.389Z" fill="#E0FFFF"/>
</g>
<path d="M346.834 170.741C352.994 170.741 357.988 165.747 357.988 159.586C357.988 153.425 352.994 148.431 346.834 148.431C340.674 148.431 335.681 153.425 335.681 159.586C335.681 165.747 340.674 170.741 346.834 170.741Z" fill="white"/>
<g style="mix-blend-mode:soft-light">
<path d="M398.743 143.592C394.687 143.588 390.723 142.382 387.353 140.126C383.982 137.87 381.356 134.665 379.806 130.916C378.257 127.168 377.853 123.044 378.646 119.066C379.44 115.088 381.395 111.435 384.264 108.567C387.133 105.7 390.788 103.749 394.766 102.958C398.744 102.168 402.867 102.576 406.614 104.129C410.361 105.682 413.563 108.311 415.816 111.684C418.069 115.057 419.272 119.022 419.272 123.079C419.267 128.521 417.102 133.738 413.253 137.585C409.403 141.431 404.185 143.592 398.743 143.592ZM398.743 103.9C394.951 103.903 391.245 105.031 388.094 107.141C384.943 109.25 382.488 112.247 381.039 115.752C379.59 119.256 379.213 123.112 379.955 126.831C380.697 130.55 382.525 133.966 385.207 136.646C387.89 139.327 391.307 141.152 395.026 141.89C398.746 142.629 402.6 142.248 406.104 140.796C409.607 139.344 412.601 136.886 414.707 133.732C416.813 130.579 417.938 126.871 417.938 123.079C417.933 117.991 415.908 113.112 412.309 109.516C408.71 105.92 403.831 103.9 398.743 103.9Z" fill="#E0FFFF"/>
</g>
<path d="M398.743 133.575C404.54 133.575 409.239 128.876 409.239 123.079C409.239 117.282 404.54 112.582 398.743 112.582C392.946 112.582 388.247 117.282 388.247 123.079C388.247 128.876 392.946 133.575 398.743 133.575Z" fill="white"/>
<g style="mix-blend-mode:soft-light">
<path d="M323.032 103.953L324.527 101.676L332.639 108.792L331.393 110.518L323.032 103.953Z" fill="white"/>
<path d="M332.852 103.953L331.34 101.676L323.246 108.792L324.473 110.518L332.852 103.953Z" fill="white"/>
</g>
<path d="M544.703 103.224H472.088V106.871H544.703V103.224Z" fill="white"/>
<path d="M89.9773 50.6512V82.1593L127.655 82.4795L128.171 49.6371L89.9773 50.6512Z" fill="url(#paint68_linear_11_526)"/>
<path d="M128.171 49.6371L130.625 53.7825L129.398 82.4617L127.655 82.4795L128.171 49.6371Z" fill="url(#paint69_linear_11_526)"/>
<path d="M96.7017 61.2903L100.188 56.2376L119.009 72.0361L116.11 75.879L96.7017 61.2903Z" fill="white"/>
<path d="M119.489 61.2903L116.003 56.2376L97.1819 72.0361L100.064 75.879L119.489 61.2903Z" fill="white"/>
<path d="M246.326 346.659C251.912 344.88 259.863 343.475 261.838 341.411L268.207 332.693L262.514 342.336C260.041 344.204 252.605 345.343 246.326 346.659Z" fill="#34C7FF"/>
<g style="mix-blend-mode:multiply" opacity="0.2">
<path d="M398.885 699.19C398.885 699.19 309.602 706.306 199.452 706.306C89.3014 706.306 0 699.19 0 699.19C0 699.19 89.3014 692.073 199.452 692.073C309.602 692.073 398.885 699.19 398.885 699.19Z" fill="#5B91C0"/>
</g>
</g>
<defs>
<linearGradient id="paint0_linear_11_526" x1="99.2109" y1="701.925" x2="100.013" y2="717.969" gradientUnits="userSpaceOnUse">
<stop offset="0.01" stop-color="#693760"/>
<stop offset="0.99" stop-color="#371143"/>
</linearGradient>
<linearGradient id="paint1_linear_11_526" x1="273.525" y1="692.754" x2="273.525" y2="710.425" gradientUnits="userSpaceOnUse">
<stop offset="0.01" stop-color="#693760"/>
<stop offset="0.99" stop-color="#371143"/>
</linearGradient>
<linearGradient id="paint2_linear_11_526" x1="106.379" y1="726.004" x2="108.96" y2="674.382" gradientUnits="userSpaceOnUse">
<stop offset="0.01" stop-color="#693760"/>
<stop offset="0.99" stop-color="#371143"/>
</linearGradient>
<linearGradient id="paint3_linear_11_526" x1="273.525" y1="697.873" x2="273.525" y2="643.432" gradientUnits="userSpaceOnUse">
<stop offset="0.01" stop-color="#693760"/>
<stop offset="0.99" stop-color="#371143"/>
</linearGradient>
<linearGradient id="paint4_linear_11_526" x1="194.311" y1="667.806" x2="194.311" y2="277.007" gradientUnits="userSpaceOnUse">
<stop stop-color="#6456C0"/>
<stop offset="1" stop-color="#5F2C95"/>
</linearGradient>
<linearGradient id="paint5_linear_11_526" x1="186.901" y1="510.808" x2="192.377" y2="415.266" gradientUnits="userSpaceOnUse">
<stop offset="0.01" stop-color="#6A2279"/>
<stop offset="1" stop-color="white"/>
</linearGradient>
<linearGradient id="paint6_linear_11_526" x1="152.189" y1="638.336" x2="158.088" y2="535.406" gradientUnits="userSpaceOnUse">
<stop offset="0.01" stop-color="#6A2279"/>
<stop offset="1" stop-color="white"/>
</linearGradient>
<linearGradient id="paint7_linear_11_526" x1="208.969" y1="391.955" x2="208.969" y2="327.569" gradientUnits="userSpaceOnUse">
<stop offset="0.01" stop-color="#63517C"/>
<stop offset="1" stop-color="#8E72B3"/>
</linearGradient>
<linearGradient id="paint8_linear_11_526" x1="220.941" y1="163.144" x2="220.941" y2="115.642" gradientUnits="userSpaceOnUse">
<stop stop-color="#D5CDF8"/>
<stop offset="1" stop-color="#F3EDFB"/>
</linearGradient>
<linearGradient id="paint9_linear_11_526" x1="196.481" y1="139.34" x2="245.383" y2="139.34" gradientUnits="userSpaceOnUse">
<stop stop-color="#CCCCFF"/>
<stop offset="1" stop-color="#755CBB"/>
</linearGradient>
<linearGradient id="paint10_linear_11_526" x1="206.959" y1="352.94" x2="206.959" y2="113.578" gradientUnits="userSpaceOnUse">
<stop stop-color="#9E8CEF"/>
<stop offset="1" stop-color="#CAAFEE"/>
</linearGradient>
<linearGradient id="paint11_linear_11_526" x1="107.624" y1="203.779" x2="165.919" y2="203.779" gradientUnits="userSpaceOnUse">
<stop stop-color="#CCCCFF"/>
<stop offset="1" stop-color="#755CBB"/>
</linearGradient>
<linearGradient id="paint12_linear_11_526" x1="105.827" y1="270.816" x2="105.827" y2="158.892" gradientUnits="userSpaceOnUse">
<stop stop-color="#9E8CEF"/>
<stop offset="1" stop-color="#DAC7F3"/>
</linearGradient>
<linearGradient id="paint13_linear_11_526" x1="298.27" y1="238.561" x2="373.376" y2="238.561" gradientUnits="userSpaceOnUse">
<stop stop-color="#A999F1"/>
<stop offset="1" stop-color="#DAC7F3"/>
</linearGradient>
<linearGradient id="paint14_linear_11_526" x1="81.403" y1="143.627" x2="81.403" y2="114.112" gradientUnits="userSpaceOnUse">
<stop offset="0.02" stop-color="#FFC2A9"/>
<stop offset="1" stop-color="#FF9595"/>
</linearGradient>
<linearGradient id="paint15_linear_11_526" x1="99.9748" y1="142.916" x2="99.9748" y2="94.0793" gradientUnits="userSpaceOnUse">
<stop stop-color="#FFEADB"/>
<stop offset="0.99" stop-color="#C27CB6"/>
</linearGradient>
<linearGradient id="paint16_linear_11_526" x1="98.3915" y1="176.167" x2="98.3915" y2="100.84" gradientUnits="userSpaceOnUse">
<stop offset="0.02" stop-color="#FFC2A9"/>
<stop offset="1" stop-color="#FF9595"/>
</linearGradient>
<linearGradient id="paint17_linear_11_526" x1="84.9253" y1="164.407" x2="108.603" y2="164.407" gradientUnits="userSpaceOnUse">
<stop offset="0.02" stop-color="#D1A1D6"/>
<stop offset="0.99" stop-color="#BD89C4"/>
</linearGradient>
<linearGradient id="paint18_linear_11_526" x1="374.923" y1="222.033" x2="374.923" y2="121.317" gradientUnits="userSpaceOnUse">
<stop offset="0.02" stop-color="#FFC2A9"/>
<stop offset="1" stop-color="#FF9595"/>
</linearGradient>
<linearGradient id="paint19_linear_11_526" x1="386.824" y1="189.76" x2="386.824" y2="139.731" gradientUnits="userSpaceOnUse">
<stop stop-color="#FFEADB"/>
<stop offset="0.99" stop-color="#C27CB6"/>
</linearGradient>
<linearGradient id="paint20_linear_11_526" x1="396.697" y1="172.502" x2="396.697" y2="150.068" gradientUnits="userSpaceOnUse">
<stop stop-color="#FFB0B0"/>
<stop offset="0.98" stop-color="#FFC2A9"/>
</linearGradient>
<linearGradient id="paint21_linear_11_526" x1="409.701" y1="175.954" x2="409.701" y2="163.642" gradientUnits="userSpaceOnUse">
<stop stop-color="#FFB0B0"/>
<stop offset="0.98" stop-color="#FFC2A9"/>
</linearGradient>
<linearGradient id="paint22_linear_11_526" x1="357.099" y1="200.47" x2="379.975" y2="200.47" gradientUnits="userSpaceOnUse">
<stop offset="0.02" stop-color="#D1A1D6"/>
<stop offset="0.99" stop-color="#BD89C4"/>
</linearGradient>
<linearGradient id="paint23_linear_11_526" x1="325.256" y1="279.427" x2="325.256" y2="166.685" gradientUnits="userSpaceOnUse">
<stop stop-color="#CCCCFF"/>
<stop offset="1" stop-color="#755CBB"/>
</linearGradient>
<linearGradient id="paint24_linear_11_526" x1="77.0802" y1="256.708" x2="265.609" y2="256.708" gradientUnits="userSpaceOnUse">
<stop stop-color="#CCCCFF"/>
<stop offset="1" stop-color="#755CBB"/>
</linearGradient>
<linearGradient id="paint25_linear_11_526" x1="243.302" y1="225.164" x2="279.325" y2="225.164" gradientUnits="userSpaceOnUse">
<stop stop-color="#CCEDFF"/>
<stop offset="1" stop-color="#755CBB"/>
</linearGradient>
<linearGradient id="paint26_linear_11_526" x1="210.605" y1="288.411" x2="263.564" y2="288.411" gradientUnits="userSpaceOnUse">
<stop stop-color="#CCEDFF"/>
<stop offset="1" stop-color="#755CBB"/>
</linearGradient>
<linearGradient id="paint27_linear_11_526" x1="213.06" y1="312.358" x2="269.647" y2="312.358" gradientUnits="userSpaceOnUse">
<stop stop-color="#CCEDFF"/>
<stop offset="1" stop-color="#755CBB"/>
</linearGradient>
<linearGradient id="paint28_linear_11_526" x1="164.371" y1="253.06" x2="164.371" y2="189.546" gradientUnits="userSpaceOnUse">
<stop stop-color="#CCEDFF"/>
<stop offset="1" stop-color="#755CBB"/>
</linearGradient>
<linearGradient id="paint29_linear_11_526" x1="169.477" y1="258.398" x2="169.477" y2="210.255" gradientUnits="userSpaceOnUse">
<stop stop-color="#CCEDFF"/>
<stop offset="1" stop-color="#755CBB"/>
</linearGradient>
<linearGradient id="paint30_linear_11_526" x1="93.3929" y1="196.858" x2="93.3929" y2="160.493" gradientUnits="userSpaceOnUse">
<stop stop-color="#CCEDFF"/>
<stop offset="1" stop-color="#755CBB"/>
</linearGradient>
<linearGradient id="paint31_linear_11_526" x1="122.834" y1="164.834" x2="137.492" y2="164.834" gradientUnits="userSpaceOnUse">
<stop stop-color="#CCEDFF"/>
<stop offset="1" stop-color="#755CBB"/>
</linearGradient>
<linearGradient id="paint32_linear_11_526" x1="282.171" y1="253.06" x2="282.171" y2="185.65" gradientUnits="userSpaceOnUse">
<stop stop-color="#CCCCFF"/>
<stop offset="1" stop-color="#755CBB"/>
</linearGradient>
<linearGradient id="paint33_linear_11_526" x1="357.952" y1="238.561" x2="357.952" y2="203.334" gradientUnits="userSpaceOnUse">
<stop stop-color="#CCCCFF"/>
<stop offset="1" stop-color="#755CBB"/>
</linearGradient>
<linearGradient id="paint34_linear_11_526" x1="317.998" y1="236.995" x2="317.998" y2="210.059" gradientUnits="userSpaceOnUse">
<stop stop-color="#CCCCFF"/>
<stop offset="1" stop-color="#755CBB"/>
</linearGradient>
<linearGradient id="paint35_linear_11_526" x1="85.797" y1="199.189" x2="85.797" y2="189.173" gradientUnits="userSpaceOnUse">
<stop stop-color="#CCEDFF"/>
<stop offset="1" stop-color="#755CBB"/>
</linearGradient>
<linearGradient id="paint36_linear_11_526" x1="112.498" y1="229.665" x2="112.498" y2="175.011" gradientUnits="userSpaceOnUse">
<stop stop-color="#CCCCFF"/>
<stop offset="1" stop-color="#755CBB"/>
</linearGradient>
<linearGradient id="paint37_linear_11_526" x1="253.121" y1="191.201" x2="253.121" y2="150.068" gradientUnits="userSpaceOnUse">
<stop stop-color="#CCEDFF"/>
<stop offset="1" stop-color="#755CBB"/>
</linearGradient>
<linearGradient id="paint38_linear_11_526" x1="199.238" y1="185.632" x2="199.238" y2="128.861" gradientUnits="userSpaceOnUse">
<stop stop-color="#CCEDFF"/>
<stop offset="1" stop-color="#755CBB"/>
</linearGradient>
<linearGradient id="paint39_linear_11_526" x1="188.244" y1="141.297" x2="249.937" y2="141.297" gradientUnits="userSpaceOnUse">
<stop stop-color="#CCCCFF"/>
<stop offset="1" stop-color="#755CBB"/>
</linearGradient>
<linearGradient id="paint40_linear_11_526" x1="346.852" y1="234.54" x2="346.852" y2="198.833" gradientUnits="userSpaceOnUse">
<stop stop-color="#CCCCFF"/>
<stop offset="1" stop-color="#755CBB"/>
</linearGradient>
<linearGradient id="paint41_linear_11_526" x1="296.384" y1="274.837" x2="296.384" y2="166.685" gradientUnits="userSpaceOnUse">
<stop stop-color="#CCCCFF"/>
<stop offset="1" stop-color="#755CBB"/>
</linearGradient>
<linearGradient id="paint42_linear_11_526" x1="180.133" y1="325.63" x2="180.133" y2="294.62" gradientUnits="userSpaceOnUse">
<stop stop-color="#CCCCFF"/>
<stop offset="1" stop-color="#755CBB"/>
</linearGradient>
<linearGradient id="paint43_linear_11_526" x1="240.349" y1="317.108" x2="240.349" y2="302.057" gradientUnits="userSpaceOnUse">
<stop stop-color="#CCCCFF"/>
<stop offset="1" stop-color="#755CBB"/>
</linearGradient>
<linearGradient id="paint44_linear_11_526" x1="239.673" y1="123.612" x2="239.673" y2="20.6199" gradientUnits="userSpaceOnUse">
<stop offset="0.02" stop-color="#FFC2A9"/>
<stop offset="1" stop-color="#FF9595"/>
</linearGradient>
<linearGradient id="paint45_linear_11_526" x1="201.284" y1="82.0525" x2="201.284" y2="51.6831" gradientUnits="userSpaceOnUse">
<stop offset="0.02" stop-color="#FFC2A9"/>
<stop offset="1" stop-color="#FF9595"/>
</linearGradient>
<linearGradient id="paint46_linear_11_526" x1="253.993" y1="93.5277" x2="255.274" y2="86.8917" gradientUnits="userSpaceOnUse">
<stop stop-color="#E1616A"/>
<stop offset="1" stop-color="#FF8883"/>
</linearGradient>
<linearGradient id="paint47_linear_11_526" x1="242.501" y1="88.4573" x2="242.501" y2="22.1143" gradientUnits="userSpaceOnUse">
<stop stop-color="#FFEADB"/>
<stop offset="0.99" stop-color="#C27CB6"/>
</linearGradient>
<linearGradient id="paint48_linear_11_526" x1="239.264" y1="61.2903" x2="239.264" y2="48.1427" gradientUnits="userSpaceOnUse">
<stop stop-color="#CF6074"/>
<stop offset="1" stop-color="#F37270"/>
</linearGradient>
<linearGradient id="paint49_linear_11_526" x1="265.485" y1="65.4534" x2="265.485" y2="54.0137" gradientUnits="userSpaceOnUse">
<stop stop-color="#CF6074"/>
<stop offset="1" stop-color="#FF817F"/>
</linearGradient>
<linearGradient id="paint50_linear_11_526" x1="266.552" y1="72.1073" x2="266.552" y2="46.3814" gradientUnits="userSpaceOnUse">
<stop stop-color="#FFEADB"/>
<stop offset="0.99" stop-color="#C27CB6"/>
</linearGradient>
<linearGradient id="paint51_linear_11_526" x1="241.06" y1="124.893" x2="241.06" y2="0" gradientUnits="userSpaceOnUse">
<stop stop-color="#2E33A0"/>
<stop offset="1" stop-color="#0665A5"/>
</linearGradient>
<linearGradient id="paint52_linear_11_526" x1="273.863" y1="46.239" x2="273.863" y2="17.4353" gradientUnits="userSpaceOnUse">
<stop stop-color="#FFEADB"/>
<stop offset="0.99" stop-color="#8860C7"/>
</linearGradient>
<linearGradient id="paint53_linear_11_526" x1="234.603" y1="124.893" x2="234.603" y2="0" gradientUnits="userSpaceOnUse">
<stop stop-color="#CCC2DB"/>
<stop offset="0.99" stop-color="#8860C7"/>
</linearGradient>
<linearGradient id="paint54_linear_11_526" x1="242.982" y1="124.876" x2="242.982" y2="119.503" gradientUnits="userSpaceOnUse">
<stop stop-color="#776D7E"/>
<stop offset="1" stop-color="#9D68C2"/>
</linearGradient>
<linearGradient id="paint55_linear_11_526" x1="258.725" y1="8.96671" x2="258.725" y2="4.98151" gradientUnits="userSpaceOnUse">
<stop stop-color="#1F77D1"/>
<stop offset="1" stop-color="#0686C9"/>
</linearGradient>
<linearGradient id="paint56_linear_11_526" x1="233.322" y1="22.0965" x2="233.322" y2="10.301" gradientUnits="userSpaceOnUse">
<stop stop-color="#1F77D1"/>
<stop offset="1" stop-color="#0686C9"/>
</linearGradient>
<linearGradient id="paint57_linear_11_526" x1="276.034" y1="28.0743" x2="276.034" y2="17.4353" gradientUnits="userSpaceOnUse">
<stop stop-color="#1F77D1"/>
<stop offset="1" stop-color="#0686C9"/>
</linearGradient>
<linearGradient id="paint58_linear_11_526" x1="205.713" y1="74.8471" x2="192.121" y2="58.1961" gradientUnits="userSpaceOnUse">
<stop stop-color="#FFEADB"/>
<stop offset="0.99" stop-color="#B060F4"/>
</linearGradient>
<linearGradient id="paint59_linear_11_526" x1="207.136" y1="72.7122" x2="200.447" y2="64.5112" gradientUnits="userSpaceOnUse">
<stop stop-color="#FFEADB"/>
<stop offset="0.99" stop-color="#B060F4"/>
</linearGradient>
<linearGradient id="paint60_linear_11_526" x1="232.539" y1="23.1462" x2="255.576" y2="23.1462" gradientUnits="userSpaceOnUse">
<stop stop-color="#1F77D1"/>
<stop offset="1" stop-color="#0686C9"/>
</linearGradient>
<linearGradient id="paint61_linear_11_526" x1="265.022" y1="92.0333" x2="272.013" y2="92.0333" gradientUnits="userSpaceOnUse">
<stop stop-color="#1F77D1"/>
<stop offset="1" stop-color="#0686C9"/>
</linearGradient>
<linearGradient id="paint62_linear_11_526" x1="256.395" y1="86.8383" x2="263.937" y2="86.8383" gradientUnits="userSpaceOnUse">
<stop stop-color="#1F77D1"/>
<stop offset="1" stop-color="#0686C9"/>
</linearGradient>
<linearGradient id="paint63_linear_11_526" x1="314.636" y1="105.11" x2="550.804" y2="105.11" gradientUnits="userSpaceOnUse">
<stop stop-color="#9D68C2"/>
<stop offset="1" stop-color="#AEC2FF"/>
</linearGradient>
<linearGradient id="paint64_linear_11_526" x1="362.685" y1="194.314" x2="362.685" y2="123.079" gradientUnits="userSpaceOnUse">
<stop stop-color="#CCEDFF"/>
<stop offset="1" stop-color="#9D68C2"/>
</linearGradient>
<linearGradient id="paint65_linear_11_526" x1="484.131" y1="159.586" x2="484.131" y2="128.203" gradientUnits="userSpaceOnUse">
<stop stop-color="#CCEDFF"/>
<stop offset="1" stop-color="#9D68C2"/>
</linearGradient>
<linearGradient id="paint66_linear_11_526" x1="521.15" y1="159.586" x2="521.15" y2="128.203" gradientUnits="userSpaceOnUse">
<stop stop-color="#CCEDFF"/>
<stop offset="1" stop-color="#9D68C2"/>
</linearGradient>
<linearGradient id="paint67_linear_11_526" x1="446.507" y1="159.586" x2="446.507" y2="128.203" gradientUnits="userSpaceOnUse">
<stop stop-color="#CCEDFF"/>
<stop offset="1" stop-color="#9D68C2"/>
</linearGradient>
<linearGradient id="paint68_linear_11_526" x1="109.065" y1="82.4795" x2="109.065" y2="49.6371" gradientUnits="userSpaceOnUse">
<stop stop-color="#FB8500"/>
<stop offset="1" stop-color="#FF9F0A"/>
</linearGradient>
<linearGradient id="paint69_linear_11_526" x1="129.149" y1="82.4795" x2="129.149" y2="49.6371" gradientUnits="userSpaceOnUse">
<stop stop-color="#FFB732"/>
<stop offset="1" stop-color="#FB8500"/>
</linearGradient>
<clipPath id="clip0_11_526">
<rect width="551" height="707" fill="white"/>
</clipPath>
</defs>
</svg>
