<svg width="277" height="350" viewBox="0 0 277 350" fill="none" xmlns="http://www.w3.org/2000/svg">
<g clip-path="url(#clip0_15_702)">
<path d="M36.1703 253.005C43.5531 259.073 56.9453 255.009 66.0451 243.904L92.2284 212.078C101.328 200.973 102.73 187.064 95.3476 180.996C87.9361 174.9 74.5726 178.964 65.4441 190.069L39.2894 221.895C30.161 232.999 28.7588 246.909 36.1703 253.005Z" fill="#4D5266"/>
<path d="M72.4263 188.666L68.6777 192.358C66.823 194.13 65.6912 196.526 65.5013 199.084L61.6954 250.143C61.5892 251.572 61.7789 253.008 62.2527 254.361C62.7266 255.713 63.4743 256.954 64.4493 258.004C65.4243 259.054 66.6054 259.892 67.9189 260.465C69.2324 261.038 70.65 261.334 72.0829 261.334H149.345C152.108 261.334 154.757 260.236 156.711 258.282C158.664 256.329 159.761 253.679 159.761 250.916V194.161C159.757 192.661 159.43 191.18 158.803 189.817C158.176 188.454 157.263 187.242 156.127 186.262C144.379 176.172 129.291 170.827 113.812 171.271C98.3328 171.716 83.5761 177.918 72.4263 188.666Z" fill="#4D5266"/>
<path d="M99.2965 166.772V182.313L103.389 202.748L122.189 184.774V162.679L99.2965 166.772Z" fill="#FFD7BD"/>
<path d="M198.564 96.7659C198.564 96.7659 184.543 170.721 248.642 145.421C248.441 146.365 241.431 105.094 222.888 103.205C204.345 101.317 198.564 96.7659 198.564 96.7659Z" fill="#A14C0B"/>
<path d="M199.308 80.6239C199.308 80.6239 278.803 68.2599 276.971 80.6239C271.248 118.746 195.302 135.003 197.305 101.631C199.308 68.2599 199.308 80.6239 199.308 80.6239Z" fill="#FB8500"/>
<path d="M197.735 94.8197C196.018 94.0469 243.949 87.6073 240.658 93.8752C237.367 100.143 201.025 96.308 197.735 94.8197Z" fill="#961940"/>
<path d="M210.469 82.1694C210.469 36.7773 169.663 0 119.328 0C68.9925 0 28.1865 36.7773 28.1865 82.1694C28.198 92.715 30.4308 103.14 34.7395 112.765C27.4711 118.947 23.2932 126.274 23.2932 134.087C23.2932 156.64 58.2616 174.957 101.357 174.957C135.953 174.957 165.284 163.165 175.529 146.823C196.762 131.797 210.469 108.414 210.469 82.1694Z" fill="#4D5266"/>
<path d="M53.5114 56.411C44.4314 61.2491 36.0553 67.3059 28.6157 74.4133C28.3582 76.9891 28.2151 79.6222 28.2151 82.2553C28.2181 92.5719 30.3618 102.776 34.5105 112.221C78.8935 92.4728 160.076 116.256 162.28 117.001C164.483 117.745 178.619 76.1305 178.619 76.1305C178.619 76.1305 114.835 22.0664 53.5114 56.411Z" fill="#FFD7BD"/>
<path d="M82.1271 87.4642C81.4658 93.1292 80.5107 98.7559 79.2655 104.322C81.2114 104.322 83.1859 104.322 85.1317 104.322C86.0471 98.5246 84.989 92.5879 82.1271 87.4642Z" fill="#FFAD96"/>
<path d="M122.189 103.463C126.453 103.463 130.001 98.1969 130.774 91.1562C130.948 92.36 131.034 93.5748 131.031 94.791C131.031 103.578 126.996 110.704 122.046 110.704C117.095 110.704 113.032 103.578 113.032 94.791C113.044 93.5753 113.13 92.3615 113.29 91.1562C114.463 98.1969 117.925 103.463 122.189 103.463Z" fill="#2B2520"/>
<path d="M58.5477 103.463C62.8114 103.463 66.3598 98.1969 67.3041 91.1562C67.4543 92.3621 67.5308 93.5759 67.533 94.791C67.533 103.578 63.5268 110.704 58.5477 110.704C53.5686 110.704 49.5624 103.578 49.5624 94.791C49.5646 93.5759 49.6411 92.3621 49.7913 91.1562C50.7356 98.1969 54.3698 103.463 58.5477 103.463Z" fill="#2B2520"/>
<path d="M133.184 65.7501L108.397 72.5276L111.181 82.7147L135.968 75.9372L133.184 65.7501Z" fill="#2B2520"/>
<path d="M43.2615 77.5267L68.6606 81.4276L70.2633 70.989L44.8641 67.0881L43.2615 77.5267Z" fill="#2B2520"/>
<path d="M36.2275 48.3973C31.4409 57.9075 28.7294 68.3265 28.2723 78.9639C111.945 31.1105 203.715 106.268 203.715 106.268C203.715 106.268 204.574 106.783 206.004 107.47C208.94 99.357 210.45 90.7973 210.469 82.1694C210.469 82.0263 210.469 81.8546 210.469 81.7115C140.646 32.2553 75.1162 37.2066 36.2275 48.3973Z" fill="#FB8500"/>
<path d="M186.803 248.998C179.392 255.009 167.144 252.261 159.475 242.816L137.355 215.799C129.686 206.354 129.457 193.789 136.897 187.75C144.338 181.712 156.585 184.488 164.254 193.932L186.288 221.065C194.043 230.509 194.243 243.074 186.803 248.998Z" fill="#4D5266"/>
<path d="M127.912 171.236C126.023 173.326 60.2932 259.531 60.2932 259.531L93.3157 261.334L149.174 181.053L127.912 171.236Z" fill="#2B303D"/>
<path d="M113.175 208.472L94.4032 174.957L79.3513 182.885L99.2965 222.524L113.175 208.472Z" fill="#2B303D"/>
<path d="M157.73 250.544H56.7449V267.773H157.73V250.544Z" fill="#2B303D"/>
<path d="M134.837 237.55C135.81 228.105 143.164 220.578 151.234 220.693L174.47 221.093C182.568 221.093 188.32 228.964 187.347 238.409C186.403 247.853 179.048 255.381 170.95 255.266L147.743 254.722C139.645 254.722 133.864 246.938 134.837 237.55Z" fill="#4D5266"/>
<path d="M130.144 261.877C119.27 263.852 109.941 254.493 109.34 240.985C108.74 227.476 117.038 214.911 127.912 212.936C138.786 210.962 148.115 220.378 148.802 233.829C149.488 247.281 141.018 259.903 130.144 261.877Z" fill="#FFD7BD"/>
<path d="M96.0057 238.58C95.0614 229.136 87.7071 221.608 79.6089 221.723L56.4016 222.124C48.3033 222.124 42.523 229.994 43.4959 239.296C44.4688 248.741 51.8231 256.268 59.8927 256.153L83.1286 255.753C91.2269 255.781 96.9786 247.997 96.0057 238.58Z" fill="#4D5266"/>
<path d="M100.699 262.936C111.601 264.911 120.901 255.581 121.531 242.044C122.16 228.506 113.833 215.97 102.959 213.995C92.0854 212.021 82.7566 221.38 82.1271 234.917C81.4976 248.455 89.8247 260.962 100.699 262.936Z" fill="#FFD7BD"/>
<path d="M60.2932 259.531L46.0999 305.953L172.524 311.133L155.183 259.531H60.2932Z" fill="#4D5266"/>
<path d="M109.913 291.214C94.7206 279.065 75.9083 272.336 56.4587 272.095L46.0999 305.953L172.524 311.133L159.447 272.21C141.373 273.291 124.073 279.928 109.913 291.214Z" fill="#34404D"/>
<path d="M100.813 306.039C100.813 306.039 139.502 257.584 205.232 284.774C270.962 311.963 140.446 351.46 117.897 330.796C95.3475 310.132 100.813 306.039 100.813 306.039Z" fill="#4D5266"/>
<path d="M182.969 291.156L184.256 291.357C184.256 291.357 183.913 291.185 182.969 291.156Z" fill="#2B303D"/>
<path d="M101.185 311.305C101.686 312.379 102.27 313.412 102.931 314.396C131.976 293.017 174.985 290.784 183.055 291.156C148.802 285.146 116.981 301.231 101.185 311.305Z" fill="#2B303D"/>
<path d="M122.761 306.039C122.761 306.039 84.0729 257.584 18.314 284.774C-47.4449 311.963 83.1286 351.46 105.649 330.796C128.17 310.132 122.761 306.039 122.761 306.039Z" fill="#4D5266"/>
<path d="M40.6057 291.156L39.318 291.357C39.318 291.357 39.6614 291.185 40.6057 291.156Z" fill="#2B303D"/>
<path d="M122.389 311.305C121.888 312.379 121.305 313.412 120.644 314.396C91.5702 293.017 48.5894 290.784 40.5198 291.156C74.83 285.146 106.565 301.231 122.389 311.305Z" fill="#2B303D"/>
<path d="M87.0775 308.157C90.912 301.259 106.279 302.433 121.416 311.019C136.554 319.605 145.654 331.826 141.819 338.724C137.985 345.621 122.618 344.448 107.481 336.033C92.3428 327.619 83.243 315.054 87.0775 308.157Z" fill="#2B303D"/>
<path d="M79.6947 315.112C83.5292 308.214 98.8959 309.387 114.034 317.974C129.171 326.56 138.271 338.781 134.437 345.678C130.602 352.576 115.235 351.402 100.098 342.816C84.96 334.23 75.8602 322.009 79.6947 315.112Z" fill="#B4DCDE"/>
<path d="M121.559 345.764C121.559 345.764 114.692 342.902 131.26 332.227C131.26 332.227 100.441 337.464 88.5656 310.704" stroke="#2B303D" stroke-width="2.02" stroke-linecap="round" stroke-linejoin="round"/>
<path d="M123.334 236.148C120.844 236.148 118.457 235.159 116.697 233.398C114.937 231.638 113.948 229.25 113.948 226.76V207.212C113.948 204.723 114.937 202.335 116.697 200.574C118.457 198.814 120.844 197.825 123.334 197.825C125.823 197.825 128.21 198.814 129.971 200.574C131.731 202.335 132.72 204.723 132.72 207.212V226.76C132.72 229.25 131.731 231.638 129.971 233.398C128.21 235.159 125.823 236.148 123.334 236.148Z" fill="#FFD7BD"/>
</g>
<defs>
<clipPath id="clip0_15_702">
<rect width="277" height="350" fill="white"/>
</clipPath>
</defs>
</svg>
